<svg width="24px" height="19px" viewBox="0 0 24 19" version="1.1" xmlns="http://www.w3.org/2000/svg" xmlns:xlink="http://www.w3.org/1999/xlink">
    <defs></defs>
    <g id="Page-1" stroke="none" stroke-width="1" fill="none" fill-rule="evenodd">
        <g id="Company-/-Top" transform="translate(-366.000000, -461.000000)" fill="#FF4135">
            <path d="M379,470.5 L379,467 C379,466.723858 378.776142,466.5 378.5,466.5 L377.5,466.5 C377.223858,466.5 377,466.723858 377,467 L377,470.5 L373.5,470.5 C373.223858,470.5 373,470.723858 373,471 L373,472 C373,472.276142 373.223858,472.5 373.5,472.5 L377,472.5 L377,476 C377,476.276142 377.223858,476.5 377.5,476.5 L378.5,476.5 C378.776142,476.5 379,476.276142 379,476 L379,472.5 L382.5,472.5 C382.776142,472.5 383,472.276142 383,472 L383,471 C383,470.723858 382.776142,470.5 382.5,470.5 L379,470.5 Z M380.958521,463.5 L387,463.5 C388.656854,463.5 390,464.843146 390,466.5 L390,477 C390,478.656854 388.656854,480 387,480 L369,480 C367.343146,480 366,478.656854 366,477 L366,464 C366,462.343146 367.343146,461 369,461 L378,461 C379.486498,461 380.720482,462.081143 380.958521,463.5 Z" id="Combined-Shape"></path>
        </g>
    </g>
</svg>