<svg width="18" height="18" viewBox="0 0 18 18" version="1.1" xmlns="http://www.w3.org/2000/svg" xmlns:xlink="http://www.w3.org/1999/xlink">
<title>comment.icon</title>
<desc>Created using Figma</desc>
<g id="Canvas" transform="translate(-10143 -877)">
<g id="comment.icon">
<mask id="mask0_outline_ins">
<use xlink:href="#path0_fill" fill="white" transform="translate(10143 877)"/>
</mask>
<g mask="url(#mask0_outline_ins)">
<use xlink:href="#path1_stroke_2x" transform="translate(10143 877)" fill="#ABB3B9"/>
</g>
</g>
</g>
<defs>
<path id="path0_fill" fill-rule="evenodd" d="M 3 0C 1.34277 0 0 1.34314 0 3L 0 10C 0 11.6569 1.34277 13 3 13L 4 13L 4 16.1315C 4 16.9302 4.89062 17.4066 5.55469 16.9636L 10 14L 10 13L 15 13C 16.6572 13 18 11.6569 18 10L 18 3C 18 1.34314 16.6572 0 15 0L 3 0Z"/>
<path id="path1_stroke_2x" d="M 4 13L 5.5 13L 5.5 11.5L 4 11.5L 4 13ZM 5.55469 16.9636L 4.72263 15.7155L 4.72227 15.7157L 5.55469 16.9636ZM 10 14L 10.8321 15.2481L 11.5 14.8028L 11.5 14L 10 14ZM 10 13L 10 11.5L 8.5 11.5L 8.5 13L 10 13ZM 1.5 3C 1.5 2.17145 2.17132 1.5 3 1.5L 3 -1.5C 0.514227 -1.5 -1.5 0.514832 -1.5 3L 1.5 3ZM 1.5 10L 1.5 3L -1.5 3L -1.5 10L 1.5 10ZM 3 11.5C 2.17132 11.5 1.5 10.8286 1.5 10L -1.5 10C -1.5 12.4852 0.514227 14.5 3 14.5L 3 11.5ZM 4 11.5L 3 11.5L 3 14.5L 4 14.5L 4 11.5ZM 5.5 16.1315L 5.5 13L 2.5 13L 2.5 16.1315L 5.5 16.1315ZM 4.72227 15.7157C 5.05528 15.4936 5.5 15.7323 5.5 16.1315L 2.5 16.1315C 2.5 18.1281 4.72597 19.3195 6.38711 18.2114L 4.72227 15.7157ZM 9.16795 12.7519L 4.72263 15.7155L 6.38674 18.2116L 10.8321 15.2481L 9.16795 12.7519ZM 8.5 13L 8.5 14L 11.5 14L 11.5 13L 8.5 13ZM 15 11.5L 10 11.5L 10 14.5L 15 14.5L 15 11.5ZM 16.5 10C 16.5 10.8286 15.8287 11.5 15 11.5L 15 14.5C 17.4858 14.5 19.5 12.4852 19.5 10L 16.5 10ZM 16.5 3L 16.5 10L 19.5 10L 19.5 3L 16.5 3ZM 15 1.5C 15.8287 1.5 16.5 2.17145 16.5 3L 19.5 3C 19.5 0.514832 17.4858 -1.5 15 -1.5L 15 1.5ZM 3 1.5L 15 1.5L 15 -1.5L 3 -1.5L 3 1.5Z"/>
</defs>
</svg>
