
<svg width="15px" height="15px" viewBox="0 0 15 15" version="1.1" xmlns="http://www.w3.org/2000/svg" xmlns:xlink="http://www.w3.org/1999/xlink">
    <g id="Page-1" stroke="none" stroke-width="1" fill="none" fill-rule="evenodd">
        <g id="Expert's-Top-Picks-Copy-2" transform="translate(-1056.000000, -197.000000)">
            <g id="popup-copy-2" transform="translate(170.000000, 189.000000)">
                <g id="All" transform="translate(360.000000, 0.000000)">
                    <g id="loss-icon" transform="translate(533.500000, 15.500000) scale(1, -1) translate(-533.500000, -15.500000) translate(526.000000, 8.000000)">
                        <circle id="Oval" fill="#FF3B43" cx="7.5" cy="7.5" r="7.5"></circle>
                        <path d="M9.37602032,7.06739991 L5.3582941,11.0851261 C5.26381242,11.1796078 5.11062734,11.1796078 5.01614566,11.0851261 L3.98970033,10.0586808 C3.89521865,9.96419912 3.89521865,9.81101404 3.98970033,9.71653236 L8.00742655,5.69880614 L7.16188603,4.85326561 C7.12355447,4.81493406 7.09920685,4.76483972 7.09274811,4.71101685 C7.07682825,4.57835135 7.17146929,4.45789911 7.30413479,4.44197925 L10.781038,4.02475087 C10.8001863,4.02245308 10.8195406,4.02245308 10.8386889,4.02475087 C10.9713544,4.04067073 11.0659954,4.16112296 11.0500756,4.29378847 L10.6328472,7.77069167 C10.6263885,7.82451454 10.6020408,7.87460887 10.5637093,7.91294043 C10.4692276,8.00742212 10.3160425,8.00742212 10.2215608,7.91294043 L9.37602032,7.06739991 L9.37602032,7.06739991 Z" id="Path" fill="#FFFFFF"></path>
                    </g>
                </g>
            </g>
        </g>
    </g>
</svg>
