
<svg width="16px" height="16px" viewBox="0 0 16 16" version="1.1" xmlns="http://www.w3.org/2000/svg" xmlns:xlink="http://www.w3.org/1999/xlink">
    <g id="Page-1" stroke="none" stroke-width="1" fill="none" fill-rule="evenodd">
        <g id="Expert's-Top-Picks-Copy-2" transform="translate(-632.000000, -197.000000)">
            <g id="popup-copy-2" transform="translate(170.000000, 189.000000)">
                <g id="All" transform="translate(360.000000, 0.000000)">
                    <g id="rating-icon" transform="translate(102.000000, 8.000000)">
                        <circle id="Oval" fill="#FFA92A" cx="8" cy="8" r="8"></circle>
                        <path d="M7.85479388,10.9721067 L5.69176854,12.1797708 C5.54818054,12.2599391 5.36679021,12.2085272 5.28662191,12.0649392 C5.25393016,12.0063856 5.24196114,11.9385109 5.25265319,11.872307 L5.67421379,9.26205304 C5.68917243,9.16943092 5.65960269,9.07517577 5.59441703,9.00769652 L3.79543797,7.1454196 C3.6811803,7.02714172 3.68443932,6.83863442 3.8027172,6.72437674 C3.84696965,6.68162841 3.903378,6.65363809 3.96418628,6.64425438 L6.41978387,6.26531557 C6.51816447,6.25013383 6.60245145,6.18679508 6.64440334,6.09652179 L7.72991923,3.76067732 C7.79922523,3.61154265 7.97630639,3.54682873 8.12544106,3.61613474 C8.18916843,3.64575019 8.24036819,3.69694994 8.26998364,3.76067732 L9.35549952,6.09652179 C9.39745141,6.18679508 9.48173839,6.25013383 9.58011899,6.26531557 L12.0357166,6.64425438 C12.1982448,6.66933515 12.309668,6.82142229 12.2845873,6.98395052 C12.2752035,7.0447588 12.2472132,7.10116714 12.2044649,7.1454196 L10.4054858,9.00769652 C10.3403002,9.07517577 10.3107304,9.16943092 10.3256891,9.26205304 L10.7472497,11.872307 C10.7734692,12.0346554 10.663115,12.1875199 10.5007666,12.2137395 C10.4345627,12.2244315 10.3666879,12.2124625 10.3081343,12.1797708 L8.14510899,10.9721067 C8.05489178,10.9217365 7.94501108,10.9217365 7.85479388,10.9721067 Z" id="Star" fill="#FFFFFF"></path>
                    </g>
                </g>
            </g>
        </g>
    </g>
</svg>
