
<svg width="15px" height="15px" viewBox="0 0 15 15" version="1.1" xmlns="http://www.w3.org/2000/svg" xmlns:xlink="http://www.w3.org/1999/xlink">
    <g id="Page-1" stroke="none" stroke-width="1" fill="none" fill-rule="evenodd">
        <g id="Expert's-Top-Picks-Copy-2" transform="translate(-738.000000, -197.000000)">
            <g id="popup-copy-2" transform="translate(170.000000, 189.000000)">
                <g id="All" transform="translate(360.000000, 0.000000)">
                    <g id="big-win-icon" transform="translate(208.000000, 8.000000)">
                        <circle id="Oval" fill="#64DC11" cx="7.5" cy="7.5" r="7.5"></circle>
                        <path d="M7.5,6.77419355 L10.6451613,6.77419355 C10.7787786,6.77419355 10.8870968,6.88251175 10.8870968,7.01612903 L10.8870968,11.3709677 C10.8870968,11.504585 10.7787786,11.6129032 10.6451613,11.6129032 L9.19354839,11.6129032 C9.05993111,11.6129032 8.9516129,11.504585 8.9516129,11.3709677 L8.9516129,8.9516129 C8.9516129,8.81799563 8.8432947,8.70967742 8.70967742,8.70967742 L5.80645161,8.70967742 C5.67283433,8.70967742 5.56451613,8.60135921 5.56451613,8.46774194 L5.56451613,4.83870968 L4.36874125,4.83870968 C4.31453224,4.83870968 4.26189384,4.820504 4.2192683,4.7870125 C4.11420258,4.70446087 4.09595131,4.55236695 4.17850294,4.44730124 L6.34201976,1.69373439 C6.35393485,1.67856972 6.36762044,1.66488413 6.38278511,1.65296903 C6.48785082,1.5704174 6.63994474,1.58866867 6.72249637,1.69373439 L8.88601318,4.44730124 C8.91950468,4.48992678 8.93771036,4.54256518 8.93771036,4.59677419 C8.93771036,4.73039147 8.82939215,4.83870968 8.69577488,4.83870968 L7.5,4.83870968 L7.5,6.77419355 Z" id="Path" fill="#FFFFFF" transform="translate(7.506946, 6.607082) rotate(45.000000) translate(-7.506946, -6.607082) "></path>
                    </g>
                </g>
            </g>
        </g>
    </g>
</svg>
