<svg width="26" height="14" viewBox="0 0 26 14" version="1.1" xmlns="http://www.w3.org/2000/svg" xmlns:xlink="http://www.w3.org/1999/xlink">
<title>watch list icon</title>
<desc>Created using Figma</desc>
<g id="Canvas" transform="translate(374 1109)">
<g id="watch list icon">
<g id="Oval 4">
<mask id="mask0_outline_out">
<rect id="mask0_outline_inv" fill="white" x="-2" y="-1" width="26" height="14" transform="translate(-372 -1108)"/>
<use xlink:href="#path0_fill" fill="black" transform="translate(-372 -1108)"/>
</mask>
<g mask="url(#mask0_outline_out)">
<use xlink:href="#path1_stroke_2x" transform="translate(-372 -1108)" fill="#9B9B9B"/>
</g>
</g>
<g id="Combined Shape">
<mask id="mask1_outline_ins">
<use xlink:href="#path2_fill" fill="white" transform="translate(-365 -1106)"/>
</mask>
<g mask="url(#mask1_outline_ins)">
<use xlink:href="#path3_stroke_2x" transform="translate(-365 -1106)" fill="#979797"/>
</g>
</g>
</g>
</g>
<defs>
<path id="path0_fill" fill-rule="evenodd" d="M 11 12C 14.5613 12 22 5.95353 22 5.95353C 22 5.95353 14.5613 0 11 0C 7.43872 0 0 5.95353 0 5.95353C 0 5.95353 7.43872 12 11 12Z"/>
<path id="path1_stroke_2x" d="M 22 5.95353L 22.6308 6.72952L 23.5928 5.9475L 22.6249 5.17279L 22 5.95353ZM 0 5.95353L -0.624859 5.17279L -1.59283 5.9475L -0.630751 6.72952L 0 5.95353ZM 11 13C 12.1226 13 13.4233 12.539 14.6488 11.9592C 15.9051 11.3648 17.2116 10.5818 18.3839 9.81297C 19.5596 9.04192 20.619 8.27272 21.3835 7.69723C 21.7662 7.40911 22.0762 7.16863 22.2914 6.99956C 22.3989 6.91501 22.4828 6.84826 22.5403 6.80228C 22.5691 6.77928 22.5912 6.76148 22.6064 6.74923C 22.614 6.7431 22.6198 6.73837 22.6239 6.73507C 22.6259 6.73342 22.6275 6.73213 22.6287 6.7312C 22.6292 6.73073 22.6297 6.73036 22.6301 6.73008C 22.6302 6.72994 22.6304 6.7298 22.6305 6.72973C 22.6306 6.72961 22.6308 6.72952 22 5.95353C 21.3692 5.17754 21.3693 5.1775 21.3693 5.17747C 21.3693 5.17749 21.3693 5.17749 21.3693 5.17753C 21.3692 5.17762 21.3689 5.1778 21.3686 5.17807C 21.3679 5.1786 21.3668 5.1795 21.3653 5.18076C 21.3622 5.18327 21.3573 5.18721 21.3507 5.19252C 21.3375 5.20315 21.3175 5.2193 21.2909 5.24059C 21.2376 5.28318 21.1582 5.34634 21.0555 5.42712C 20.8499 5.58872 20.5509 5.82062 20.1806 6.09936C 19.4391 6.65757 18.4162 7.4 17.2871 8.14056C 16.1545 8.88336 14.9336 9.61193 13.7935 10.1513C 12.6227 10.7052 11.6581 11 11 11L 11 13ZM 22 5.95353C 22.6249 5.17279 22.6247 5.1727 22.6246 5.17258C 22.6245 5.17251 22.6243 5.17237 22.6242 5.17223C 22.6238 5.17196 22.6234 5.17159 22.6228 5.17113C 22.6216 5.17022 22.62 5.16895 22.618 5.16732C 22.6139 5.16407 22.6081 5.15941 22.6005 5.15338C 22.5853 5.14131 22.5632 5.12378 22.5344 5.10114C 22.4769 5.05586 22.393 4.99013 22.2854 4.90687C 22.0703 4.7404 21.7603 4.50361 21.3775 4.21991C 20.613 3.65325 19.5536 2.89588 18.378 2.1367C 17.2057 1.37969 15.8993 0.6088 14.6434 0.0237635C 13.4177 -0.547231 12.1191 -1 11 -1L 11 1C 11.6615 1 12.6283 1.29142 13.7989 1.83671C 14.9394 2.36797 16.1604 3.08546 17.293 3.81683C 18.4222 4.54603 19.4451 5.27705 20.1866 5.82667C 20.5569 6.10112 20.8558 6.32945 21.0614 6.48856C 21.1642 6.56809 21.2435 6.63027 21.2968 6.6722C 21.3234 6.69316 21.3434 6.70906 21.3566 6.71953C 21.3632 6.72476 21.3681 6.72864 21.3712 6.73111C 21.3727 6.73234 21.3738 6.73323 21.3745 6.73376C 21.3748 6.73402 21.3751 6.7342 21.3752 6.73428C 21.3752 6.73432 21.3752 6.73432 21.3752 6.73434C 21.3752 6.73432 21.3751 6.73427 22 5.95353ZM 11 -1C 9.88089 -1 8.58235 -0.547231 7.35658 0.0237635C 6.10066 0.6088 4.7943 1.37969 3.62203 2.1367C 2.4464 2.89588 1.387 3.65325 0.622478 4.21991C 0.239723 4.50361 -0.0703133 4.7404 -0.28543 4.90687C -0.393014 4.99013 -0.476932 5.05586 -0.534411 5.10114C -0.563153 5.12378 -0.585291 5.14131 -0.600479 5.15338C -0.608074 5.15941 -0.613931 5.16407 -0.618009 5.16732C -0.620047 5.16895 -0.621641 5.17022 -0.622785 5.17113C -0.623356 5.17159 -0.623816 5.17196 -0.624161 5.17223C -0.624334 5.17237 -0.624509 5.17251 -0.624595 5.17258C -0.624741 5.1727 -0.624859 5.17279 0 5.95353C 0.624859 6.73427 0.624798 6.73432 0.624765 6.73434C 0.624792 6.73432 0.624788 6.73432 0.624841 6.73428C 0.624948 6.7342 0.625167 6.73402 0.625498 6.73376C 0.62616 6.73323 0.627269 6.73234 0.628819 6.73111C 0.631919 6.72864 0.636786 6.72476 0.643375 6.71953C 0.656553 6.70906 0.67662 6.69316 0.70323 6.6722C 0.756456 6.63027 0.835832 6.56809 0.938606 6.48856C 1.14421 6.32945 1.44314 6.10112 1.81341 5.82667C 2.55494 5.27705 3.5778 4.54603 4.707 3.81683C 5.83958 3.08546 7.06064 2.36797 8.20109 1.83671C 9.37169 1.29142 10.3385 1 11 1L 11 -1ZM 0 5.95353C -0.630751 6.72952 -0.630633 6.72961 -0.630488 6.72973C -0.630401 6.7298 -0.630227 6.72994 -0.630054 6.73008C -0.629709 6.73036 -0.62925 6.73073 -0.628679 6.7312C -0.627536 6.73213 -0.625943 6.73342 -0.623905 6.73507C -0.619828 6.73837 -0.613972 6.7431 -0.606379 6.74923C -0.591193 6.76148 -0.569058 6.77928 -0.540319 6.80228C -0.482845 6.84826 -0.398932 6.91501 -0.291353 6.99956C -0.0762468 7.16863 0.233781 7.40911 0.616528 7.69723C 1.38103 8.27272 2.44044 9.04192 3.6161 9.81297C 4.78835 10.5818 6.0949 11.3648 7.35118 11.9592C 8.5767 12.539 9.87741 13 11 13L 11 11C 10.3419 11 9.37733 10.7052 8.20649 10.1513C 7.0664 9.61193 5.84552 8.88336 4.71294 8.14056C 3.58376 7.4 2.56091 6.65757 1.81936 6.09936C 1.44908 5.82062 1.15014 5.58872 0.944529 5.42712C 0.84175 5.34634 0.762369 5.28318 0.709138 5.24059C 0.682525 5.2193 0.662456 5.20315 0.649275 5.19252C 0.642684 5.18721 0.637817 5.18327 0.634715 5.18076C 0.633164 5.1795 0.632054 5.1786 0.631392 5.17807C 0.631061 5.1778 0.630841 5.17762 0.630734 5.17753C 0.63068 5.17749 0.630685 5.17749 0.630658 5.17747C 0.63069 5.1775 0.630751 5.17754 0 5.95353Z"/>
<path id="path2_fill" fill-rule="evenodd" d="M 7.867 2.97327C 7.74722 2.99084 7.62466 3 7.5 3C 6.11929 3 5 1.88074 5 0.5C 5 0.375366 5.00912 0.252808 5.02673 0.133057C 4.69907 0.0462646 4.35495 0 4 0C 1.79086 0 0 1.79089 0 4C 0 6.20911 1.79086 8 4 8C 6.20914 8 8 6.20911 8 4C 8 3.64502 7.95377 3.3009 7.867 2.97327Z"/>
<path id="path3_stroke_2x" d="M 7.867 2.97327L 8.83368 2.71728L 8.60514 1.85423L 7.72181 1.98386L 7.867 2.97327ZM 5.02673 0.133057L 6.01609 0.278536L 6.14601 -0.604958L 5.28278 -0.833607L 5.02673 0.133057ZM 7.5 4C 7.67368 4 7.84477 3.98724 8.0122 3.96267L 7.72181 1.98386C 7.64968 1.99445 7.57564 2 7.5 2L 7.5 4ZM 4 0.5C 4 2.43303 5.56702 4 7.5 4L 7.5 2C 6.67157 2 6 1.32844 6 0.5L 4 0.5ZM 4.03737 -0.0124228C 4.0127 0.155332 4 0.326512 4 0.5L 6 0.5C 6 0.424221 6.00554 0.350283 6.01609 0.278536L 4.03737 -0.0124228ZM 5.28278 -0.833607C 4.87235 -0.942321 4.44219 -1 4 -1L 4 1C 4.26771 1 4.52578 1.03485 4.77068 1.09972L 5.28278 -0.833607ZM 4 -1C 1.23857 -1 -1 1.23861 -1 4L 1 4C 1 2.34317 2.34315 1 4 1L 4 -1ZM -1 4C -1 6.76139 1.23857 9 4 9L 4 7C 2.34315 7 1 5.65683 1 4L -1 4ZM 4 9C 6.76143 9 9 6.76139 9 4L 7 4C 7 5.65683 5.65685 7 4 7L 4 9ZM 9 4C 9 3.55784 8.94237 3.1277 8.83368 2.71728L 6.90032 3.22925C 6.96516 3.4741 7 3.7322 7 4L 9 4Z"/>
</defs>
</svg>
