<?xml version="1.0" encoding="UTF-8"?>
<svg width="19px" height="25px" viewBox="0 0 19 25" version="1.1" xmlns="http://www.w3.org/2000/svg" xmlns:xlink="http://www.w3.org/1999/xlink">
    <!-- Generator: Sketch 52 (66869) - http://www.bohemiancoding.com/sketch -->
    <title>company icon</title>
    <desc>Created with Sketch.</desc>
    <g id="Page-1" stroke="none" stroke-width="1" fill="none" fill-rule="evenodd">
        <g id="mobile" transform="translate(-111.000000, -87.000000)">
            <g id="head" transform="translate(0.000000, 18.000000)">
                <g id="tabbar" transform="translate(10.000000, 63.000000)">
                    <g id="company-icon" transform="translate(101.000000, 6.000000)">
                        <path d="M2.5,24.5 L10.5,24.5 L10.5,6 C10.5,5.72385763 10.2761424,5.5 10,5.5 L3,5.5 C2.72385763,5.5 2.5,5.72385763 2.5,6 L2.5,24.5 Z" id="Rectangle-2" stroke="#FFFFFF"></path>
                        <path d="M4.5,5.5 L8.5,5.5 L8.5,4 C8.5,3.72385763 8.27614237,3.5 8,3.5 L5,3.5 C4.72385763,3.5 4.5,3.72385763 4.5,4 L4.5,5.5 Z" id="Rectangle-2-Copy-3" stroke="#FFFFFF"></path>
                        <path d="M10.5,24.5 L16.5,24.5 L16.5,12 C16.5,11.7238576 16.2761424,11.5 16,11.5 L11,11.5 C10.7238576,11.5 10.5,11.7238576 10.5,12 L10.5,24.5 Z" id="Rectangle-2-Copy-2" stroke="#FFFFFF" transform="translate(13.500000, 18.000000) scale(-1, 1) translate(-13.500000, -18.000000) "></path>
                        <path d="M6,0 L6,0 C6.55228475,-1.01453063e-16 7,0.44771525 7,1 L7,3 L6,3 L6,0 Z" id="Rectangle-3" fill="#FFFFFF"></path>
                        <rect id="Rectangle-4" fill="#FFFFFF" x="4" y="8" width="5" height="1" rx="0.5"></rect>
                        <rect id="Rectangle-4-Copy" fill="#FFFFFF" x="4" y="11" width="5" height="1" rx="0.5"></rect>
                        <rect id="Rectangle-4-Copy-2" fill="#FFFFFF" x="4" y="14" width="5" height="1" rx="0.5"></rect>
                        <rect id="Rectangle-4-Copy-3" fill="#FFFFFF" x="4" y="17" width="5" height="1" rx="0.5"></rect>
                        <rect id="Rectangle-4-Copy-4" fill="#FFFFFF" x="4" y="20" width="5" height="1" rx="0.5"></rect>
                        <polygon id="Rectangle-11" fill="#FFFFFF" points="0 24 19 24 19 25 0 25"></polygon>
                    </g>
                </g>
            </g>
        </g>
    </g>
</svg>