<?xml version="1.0" encoding="UTF-8"?>
<svg width="22px" height="20px" viewBox="0 0 22 20" version="1.1" xmlns="http://www.w3.org/2000/svg" xmlns:xlink="http://www.w3.org/1999/xlink">
    <!-- Generator: Sketch 52 (66869) - http://www.bohemiancoding.com/sketch -->
    <title>Star</title>
    <desc>Created with Sketch.</desc>
    <g id="Page-1" stroke="none" stroke-width="1" fill="none" fill-rule="evenodd">
        <g id="mobile" transform="translate(-314.000000, -89.000000)" stroke="#FFFFFF">
            <g id="head" transform="translate(0.000000, 18.000000)">
                <g id="tabbar" transform="translate(10.000000, 63.000000)">
                    <path d="M314.767329,24.6223222 L309.431098,27.4277449 C309.186676,27.5562453 308.884362,27.462272 308.755862,27.2178497 C308.704692,27.1205195 308.687035,27.0090355 308.705624,26.9006566 L309.769189,20.6995935 L305.263853,16.3079761 C305.066111,16.1152255 305.062065,15.7986689 305.254816,15.6009271 C305.33157,15.5221853 305.432141,15.4709417 305.54096,15.4551295 L311.767181,14.5504065 L314.551632,8.90849288 C314.673843,8.66086605 314.973656,8.55919655 315.221283,8.68140769 C315.319889,8.73007281 315.399703,8.80988657 315.448368,8.90849288 L318.232819,14.5504065 L324.45904,15.4551295 C324.732313,15.4948383 324.921653,15.7485597 324.881945,16.0218321 C324.866132,16.1306506 324.814889,16.2312218 324.736147,16.3079761 L320.230811,20.6995935 L321.294376,26.9006566 C321.341057,27.1728249 321.158263,27.4313028 320.886095,27.4779833 C320.777716,27.4965718 320.666232,27.4789144 320.568902,27.4277449 L315.232671,24.6223222 C315.087009,24.5457431 314.912991,24.5457431 314.767329,24.6223222 Z" id="Star"></path>
                </g>
            </g>
        </g>
    </g>
</svg>