<?xml version="1.0" encoding="UTF-8"?>
<svg width="23px" height="29px" viewBox="0 0 23 29" version="1.1" xmlns="http://www.w3.org/2000/svg" xmlns:xlink="http://www.w3.org/1999/xlink">
    <!-- Generator: Sketch 53 (72520) - https://sketchapp.com -->
    <title>Group 2</title>
    <desc>Created with Sketch.</desc>
    <g id="Page-1" stroke="none" stroke-width="1" fill="none" fill-rule="evenodd">
        <g id="Expert's-Top-Picks-Copy-4" transform="translate(-1069.000000, -344.000000)">
            <g id="Group-2" transform="translate(1069.000000, 346.000000)">
                <path d="M3,9 L20,9 C21.6568542,9 23,10.3431458 23,12 L23,24 C23,25.6568542 21.6568542,27 20,27 L3,27 C1.34314575,27 2.02906125e-16,25.6568542 0,24 L0,12 C-2.02906125e-16,10.3431458 1.34314575,9 3,9 Z M11.5,21 C13.4329966,21 15,19.4329966 15,17.5 C15,15.5670034 13.4329966,14 11.5,14 C9.56700338,14 8,15.5670034 8,17.5 C8,19.4329966 9.56700338,21 11.5,21 Z" id="Combined-Shape" fill="#FF4135"></path>
                <path d="M17.5345538,3.04562928 C16.1684926,1.19803064 13.9741538,0 11.5,0 C7.35786438,0 4,3.35786438 4,7.5 C4,10.2614237 4,11.7614237 4,12" id="Path" stroke="#FF4135" stroke-width="3"></path>
            </g>
        </g>
    </g>
</svg>