<svg width="41" height="41" viewBox="0 0 41 41" version="1.1" xmlns="http://www.w3.org/2000/svg" xmlns:xlink="http://www.w3.org/1999/xlink">
<title>Combined Shape Copy</title>
<desc>Created using Figma</desc>
<g id="Canvas" transform="translate(-33541 101)">
<g id="Combined Shape Copy">
<use xlink:href="#path0_fill" transform="translate(33541 -101)" fill="#FFFFFF"/>
</g>
</g>
<defs>
<path id="path0_fill" fill-rule="evenodd" d="M 20.5 41C 31.8203 41 41 31.8218 41 20.5C 41 9.17816 31.8203 0 20.5 0C 9.17969 0 0 9.17816 0 20.5C 0 31.8218 9.17969 41 20.5 41ZM 31.2852 18.0063L 25.3984 12.1333C 21.707 8.44008 15.7188 8.44163 12.0234 12.1368C 8.32812 15.8319 8.32422 21.8214 12.0195 25.5146L 17.8984 31.3948L 17.8906 31.4019C 18.2891 31.9137 18.2539 32.6541 17.7812 33.1247C 17.3125 33.5953 16.5703 33.6315 16.0586 33.2333L 16.0508 33.2405L 10.1719 27.3603C 5.46094 22.6483 5.46094 15.0065 10.1758 10.292C 14.8906 5.57753 22.5352 5.57556 27.2461 10.2876L 33.125 16.1678L 33.1172 16.1749C 33.5156 16.6867 33.4805 17.4271 33.0078 17.8977C 32.5391 18.3683 31.7969 18.4045 31.2852 18.0063ZM 17.668 25.3978C 17.1602 25.9075 17.1602 26.7339 17.668 27.2435L 23.2031 32.7768C 23.7109 33.2865 24.5391 33.2865 25.0469 32.7768C 25.5586 32.2672 25.5586 31.4408 25.0469 30.9311L 19.5156 25.3978C 19.0039 24.8882 18.1797 24.8882 17.668 25.3978ZM 23.8984 25.858C 23.3906 25.3483 23.3906 24.522 23.8984 24.0123C 24.4102 23.5026 25.2344 23.5026 25.7461 24.0123L 31.2773 29.5456C 31.7891 30.0553 31.7891 30.8816 31.2773 31.3913C 30.7695 31.901 29.9414 31.901 29.4336 31.3913L 23.8984 25.858ZM 27.0117 19.5138C 26.5039 20.0235 26.5039 20.8498 27.0117 21.3595L 32.5469 26.8928C 33.0547 27.4025 33.8828 27.4025 34.3906 26.8928C 34.9023 26.3831 34.9023 25.5568 34.3906 25.0471L 28.8594 19.5138C 28.3477 19.0041 27.5234 19.0041 27.0117 19.5138ZM 15.8828 21.8809C 16.4883 21.2756 16.4883 20.2946 15.8828 19.6897C 15.2812 19.0847 14.2969 19.085 13.6953 19.6902C 13.0898 20.2955 13.0898 21.2765 13.6914 21.8814C 14.2969 22.4864 15.2773 22.4861 15.8828 21.8809ZM 21.7656 13.8065C 22.3711 14.4114 22.3711 15.3925 21.7656 15.9977C 21.1602 16.6029 20.1797 16.6032 19.5742 15.9983C 18.9727 15.3933 18.9727 14.4123 19.5781 13.8071C 20.1797 13.2018 21.1641 13.2016 21.7656 13.8065Z"/>
</defs>
</svg>
