<?xml version="1.0" encoding="UTF-8"?>
<svg width="46px" height="41px" viewBox="0 0 46 41" version="1.1" xmlns="http://www.w3.org/2000/svg" xmlns:xlink="http://www.w3.org/1999/xlink">
    <!-- Generator: Sketch 52 (66869) - http://www.bohemiancoding.com/sketch -->
    <title>Combined Shape</title>
    <desc>Created with Sketch.</desc>
    <g id="Website---Blog" stroke="none" stroke-width="1" fill="none" fill-rule="evenodd">
        <g id="Group-10" transform="translate(-47.000000, -18.000000)" fill="#FF383C">
            <g id="Group-2" transform="translate(47.000000, 18.000000)">
                <g id="Group">
                    <path d="M31.1723771,3.51016515 C31.0143864,3.62815911 30.8701852,3.7662407 30.7438278,3.92232894 C29.9111106,4.95097776 30.0699446,6.45991306 31.0985934,7.29263026 L33.609593,9.32534787 L32.7770635,12.4728891 C32.6068363,13.1164664 32.7119988,13.8018517 33.067348,14.3647869 C33.773796,15.4839238 35.253725,15.8184744 36.372862,15.1120264 L39.1971825,13.3291923 L39.4510548,13.4894475 C40.3149457,15.7367816 40.7881773,18.1760871 40.7881773,20.7252747 C40.7881773,31.9226963 31.6574328,41 20.3940887,41 C9.13074451,41 -1.46727075e-12,31.9226963 -1.46727075e-12,20.7252747 C-1.46727075e-12,9.52785315 9.13074451,0.450549451 20.3940887,0.450549451 C24.351245,0.450549451 28.0451679,1.57098937 31.1723771,3.51016515 Z M25.2672725,12.4343693 L31.1098637,18.2428013 C31.6178792,18.6365178 32.3536137,18.5997239 32.821791,18.1331494 C33.2899684,17.6665748 33.3268886,16.9333591 32.9389225,16.4200042 L27.1034342,10.6044936 C22.4271403,5.94420892 14.8341461,5.95539418 10.1440071,10.6294766 C5.45386807,15.303559 5.44264438,22.8705586 10.1189383,27.5308433 L15.9615296,33.3392753 C16.469545,33.7329918 17.2052795,33.696198 17.6734569,33.2296235 C18.1416342,32.7630489 18.1785544,32.0298332 17.7905883,31.5164783 L11.9551,25.7009677 C8.28989667,22.0483121 8.29869362,16.1174205 11.9747485,12.4539505 C15.6508034,8.79048051 21.6020691,8.78171368 25.2672725,12.4343693 Z M17.5881096,25.5692976 L17.5849773,25.5724299 C17.081401,26.0777361 17.0828034,26.895597 17.5881096,27.3991733 L23.0749136,32.8671933 C23.5824642,33.3730063 24.4035248,33.3730063 24.9110754,32.8671933 L24.9142076,32.864061 C25.4177839,32.3587548 25.4163816,31.5408939 24.9110754,31.0373177 L19.4242713,25.5692976 C18.9167208,25.0634847 18.0956602,25.0634847 17.5881096,25.5692976 Z M23.783913,24.1990013 L23.7807808,24.2021336 C23.2772045,24.7074398 23.2786068,25.5253006 23.783913,26.0288769 L29.2707171,31.496897 C29.7782676,32.0027099 30.5993282,32.0027099 31.1068788,31.496897 L31.1100111,31.4937647 C31.6135874,30.9884585 31.612185,30.1705976 31.1068788,29.6670213 L25.6200748,24.1990013 C25.1125242,23.6931883 24.2914636,23.6931883 23.783913,24.1990013 Z M26.8827909,19.7499052 L26.8796586,19.7530375 C26.3760823,20.2583437 26.3774847,21.0762046 26.8827909,21.5797809 L32.3695949,27.0478009 C32.8771455,27.5536139 33.6982061,27.5536139 34.2057566,27.0478009 L34.2088889,27.0446686 C34.7124652,26.5393624 34.7110629,25.7215016 34.2057566,25.2179253 L28.7189526,19.7499052 C28.2114021,19.2440923 27.3903415,19.2440923 26.8827909,19.7499052 Z M15.799085,22.0909532 C16.4011975,21.490902 16.4026384,20.5194629 15.8023033,19.9211831 C15.2019683,19.3229033 14.227192,19.3243393 13.6250796,19.9243904 C13.0229671,20.5244415 13.0215263,21.4958806 13.6218613,22.0941604 C14.2221963,22.6924402 15.1969726,22.6910043 15.799085,22.0909532 Z M21.6518505,16.272443 C22.253963,15.6723919 22.2554038,14.7009527 21.6550688,14.102673 C21.0547338,13.5043932 20.0799575,13.5058291 19.4778451,14.1058802 C18.8757326,14.7059313 18.8742917,15.6773705 19.4746268,16.2756503 C20.0749618,16.8739301 21.0497381,16.8724941 21.6518505,16.272443 Z M38.9753695,10.6213513 L35.2915609,12.9653265 C35.0797425,13.1001047 34.7987705,13.0376513 34.6639923,12.8258329 C34.5960586,12.7190678 34.5757026,12.5888177 34.6078212,12.4664161 L35.7107245,8.26333027 L32.3364836,5.50995433 C32.1419642,5.35122681 32.1129492,5.06486364 32.2716767,4.87034429 C32.3521264,4.77175379 32.4702158,4.71139576 32.5972459,4.70393887 L36.9577079,4.4479721 L38.5523941,0.398310092 C38.6443828,0.164707268 38.9083269,0.0499063506 39.1419298,0.141895066 C39.2592677,0.188100686 39.3521392,0.280972185 39.3983448,0.398310092 L40.993031,4.4479721 L45.353493,4.70393887 C45.6041237,4.71865133 45.7953732,4.93375446 45.7806608,5.18438516 C45.7732039,5.31141523 45.7128459,5.42950461 45.6142554,5.50995433 L42.2400144,8.26333027 L43.3429178,12.4664161 C43.40664,12.7092569 43.2614357,12.9577754 43.0185948,13.0214976 C42.8961931,13.0536162 42.7659431,13.0332602 42.659178,12.9653265 L38.9753695,10.6213513 Z" id="Combined-Shape"></path>
                </g>
            </g>
        </g>
    </g>
</svg>