<?xml version="1.0" encoding="UTF-8"?>
<svg width="34px" height="34px" viewBox="0 0 34 34" version="1.1" xmlns="http://www.w3.org/2000/svg" xmlns:xlink="http://www.w3.org/1999/xlink">
    <!-- Generator: Sketch 52 (66869) - http://www.bohemiancoding.com/sketch -->
    <title>Combined Shape</title>
    <desc>Created with Sketch.</desc>
    <g id="Page-1" stroke="none" stroke-width="1" fill="none" fill-rule="evenodd">
        <g id="mobile" transform="translate(-10.000000, -18.000000)" fill="#FF3B43">
            <g id="head" transform="translate(0.000000, 18.000000)">
                <path d="M27,34 C17.6111593,34 10,26.3888407 10,17 C10,7.61115925 17.6111593,0 27,0 C36.3888407,0 44,7.61115925 44,17 C44,26.3888407 36.3888407,34 27,34 Z M35.9461522,14.9320625 C36.3705409,15.2623019 36.9845424,15.2322378 37.3748033,14.8419769 C37.7650642,14.4517161 37.7951282,13.8377146 37.4648888,13.4133258 L37.4708097,13.407405 L32.5946065,8.5312018 C28.6870398,4.62363518 22.3499887,4.62526903 18.4404067,8.5348511 C14.5308246,12.4444332 14.5291907,18.7814843 18.4367574,22.6890509 L23.3129606,27.5652541 L23.3188814,27.5593333 C23.7432701,27.8895727 24.3572716,27.8595087 24.7475325,27.4692478 C25.1377934,27.0789869 25.1678574,26.4649854 24.837618,26.0405967 L24.8435388,26.0346758 L19.9673356,21.1584726 C16.9046483,18.0957853 16.9059289,13.1289074 19.9701959,10.0646403 C23.0344629,7.00037331 28.0013408,6.99909273 31.0640282,10.0617801 L35.9402314,14.9379833 L35.9461522,14.9320625 Z M24.6535272,21.061607 C24.2308778,21.4842795 24.2308872,22.1695453 24.6535481,22.5922062 L29.2421268,27.1807849 C29.6647843,27.6034424 30.3500475,27.6034424 30.772705,27.1807849 C31.1953626,26.7581274 31.1953626,26.0728641 30.772705,25.6502066 L26.1840846,21.0615862 C26.1840776,21.0615792 26.1840707,21.0615723 26.1840637,21.0615653 C25.7614062,20.6389308 25.0761617,20.6389495 24.6535272,21.061607 Z M29.8181933,19.9126377 C29.3955439,20.3353101 29.3955533,21.020576 29.8182142,21.4432369 L34.4067928,26.0318156 C34.8294504,26.4544731 35.5147136,26.4544731 35.9373711,26.0318156 C36.3600286,25.609158 36.3600286,24.9238948 35.9373711,24.5012373 L31.3487507,19.9126169 C31.3487437,19.9126099 31.3487368,19.9126029 31.3487298,19.912596 C30.9260723,19.4899615 30.2408277,19.4899802 29.8181933,19.9126377 Z M32.40134,16.1821491 C31.9786906,16.6048215 31.9787,17.2900873 32.4013609,17.7127482 L36.9899396,22.3013269 C37.4125971,22.7239844 38.0978603,22.7239844 38.5205179,22.3013269 C38.9431754,21.8786694 38.9431754,21.1934061 38.5205179,20.7707486 L33.9318974,16.1821282 C33.9318905,16.1821212 33.9318835,16.1821143 33.9318766,16.1821073 C33.509219,15.7594728 32.8239745,15.7594915 32.40134,16.1821491 Z M23.1719346,18.1450973 C23.6738404,17.6431915 23.6740502,16.8296512 23.1724031,16.3280041 C22.670756,15.826357 21.8572157,15.8265668 21.3553099,16.3284726 C20.8534041,16.8303784 20.8531943,17.6439187 21.3548414,18.1455658 C21.8564884,18.6472129 22.6700288,18.6470031 23.1719346,18.1450973 Z M28.0506529,13.266379 C28.5525587,12.7644732 28.5527684,11.9509329 28.0511214,11.4492858 C27.5494743,10.9476388 26.735934,10.9478485 26.2340281,11.4497543 C25.7321223,11.9516601 25.7319126,12.7652005 26.2335597,13.2668475 C26.7352067,13.7684946 27.5487471,13.7682848 28.0506529,13.266379 Z" id="Combined-Shape"></path>
            </g>
        </g>
    </g>
</svg>