<svg width="11" height="6" viewBox="0 0 11 6" version="1.1" xmlns="http://www.w3.org/2000/svg" xmlns:xlink="http://www.w3.org/1999/xlink">
<title>Path 5</title>
<desc>Created using Figma</desc>
<g id="Canvas" transform="translate(891 1183)">
<g id="Path 5">
<use xlink:href="#path0_stroke" transform="translate(-890 -1182)"/>
</g>
</g>
<defs>
<path id="path0_stroke" d="M 0.669444 -0.742862C 0.259172 -1.11259 -0.373139 -1.07972 -0.742862 -0.669444C -1.11259 -0.259172 -1.07972 0.373139 -0.669444 0.742862L 0.669444 -0.742862ZM 9.54681 0.742862C 9.95708 0.373139 9.98995 -0.259172 9.62023 -0.669444C 9.2505 -1.07972 8.61819 -1.11259 8.20792 -0.742862L 9.54681 0.742862ZM 3.76924 3.39672L 4.43868 2.65386L 3.76924 3.39672ZM 5.10813 3.39672L 4.43868 2.65386L 4.43868 2.65386L 5.10813 3.39672ZM -0.669444 0.742862L 3.0998 4.13958L 4.43868 2.65386L 0.669444 -0.742862L -0.669444 0.742862ZM 5.77757 4.13958L 9.54681 0.742862L 8.20792 -0.742862L 4.43868 2.65386L 5.77757 4.13958ZM 3.0998 4.13958C 3.8607 4.82528 5.01667 4.82528 5.77757 4.13958L 4.43868 2.65386L 4.43868 2.65386L 3.0998 4.13958Z"/>
</defs>
</svg>
