<svg width="26" height="14" viewBox="0 0 26 14" fill="none" xmlns="http://www.w3.org/2000/svg">
<path d="M22 5.95353L22.3154 6.34152L22.7964 5.95052L22.3124 5.56316L22 5.95353ZM22 5.95353C22.3124 5.56316 22.3124 5.5631 22.3123 5.56302L22.3119 5.56275L22.3107 5.56179L22.3063 5.55827L22.2895 5.54491L22.225 5.4939C22.1686 5.44946 22.0858 5.38462 21.9794 5.30229C21.7667 5.13766 21.4594 4.90299 21.0798 4.6216C20.321 4.0592 19.2708 3.30842 18.1067 2.55673C16.9444 1.80613 15.6593 1.04859 14.4323 0.477001C13.2203 -0.0875677 12.0047 -0.5 11 -0.5C9.99529 -0.5 8.77968 -0.0875677 7.5677 0.477001C6.34065 1.04859 5.05562 1.80613 3.89328 2.55673C2.72925 3.30842 1.67898 4.0592 0.920211 4.6216C0.540578 4.90299 0.233316 5.13766 0.0205789 5.30229C-0.0858026 5.38462 -0.168585 5.44946 -0.225001 5.4939L-0.289516 5.54491L-0.306302 5.55827L-0.310714 5.56179L-0.311911 5.56275L-0.312255 5.56302C-0.312356 5.5631 -0.312429 5.56316 0 5.95353M22 5.95353C22.3154 6.34152 22.3153 6.34158 22.3152 6.34166L22.3149 6.34194L22.3137 6.34292L22.3092 6.34649L22.2925 6.36005L22.228 6.41186C22.1715 6.45699 22.0888 6.52284 21.9824 6.60645C21.7696 6.77365 21.4624 7.01198 21.0828 7.29776C20.324 7.86893 19.2737 8.63144 18.1097 9.39487C16.9474 10.1572 15.6622 10.9266 14.435 11.5072C13.2231 12.0805 12.0065 12.5 11 12.5C9.99354 12.5 8.77686 12.0805 7.56501 11.5072C6.33777 10.9266 5.05265 10.1572 3.89031 9.39487C2.72627 8.63144 1.676 7.86893 0.917236 7.29776C0.537606 7.01198 0.23035 6.77365 0.0176173 6.60645C-0.0887617 6.52284 -0.171541 6.45699 -0.227954 6.41186L-0.292466 6.36005L-0.30925 6.34649L-0.313661 6.34292L-0.314857 6.34194L-0.315201 6.34166C-0.315302 6.34158 -0.315375 6.34152 0 5.95353M0 5.95353L-0.312429 5.56316L-0.796415 5.95052L-0.315375 6.34152L0 5.95353Z" transform="translate(2 1)" stroke="#9B9B9B"/>
<mask id="path-2-inside-1" fill="white">
<path fill-rule="evenodd" clip-rule="evenodd" d="M7.867 2.97327C7.74722 2.99091 7.62466 3 7.5 3C6.11929 3 5 1.88074 5 0.5C5 0.375305 5.00912 0.252747 5.02673 0.132996C4.69907 0.0462036 4.35495 0 4 0C1.79086 0 0 1.79083 0 4C0 6.20917 1.79086 8 4 8C6.20914 8 8 6.20917 8 4C8 3.64508 7.95377 3.3009 7.867 2.97327Z"/>
</mask>
<path d="M7.867 2.97327L8.83368 2.71728L8.60503 1.8538L7.72131 1.98394L7.867 2.97327ZM5.02673 0.132996L6.01609 0.278475L6.14601 -0.605019L5.28278 -0.833668L5.02673 0.132996ZM7.5 4C7.67335 4 7.84461 3.98735 8.01269 3.9626L7.72131 1.98394C7.64984 1.99446 7.57598 2 7.5 2V4ZM4 0.5C4 2.43303 5.56702 4 7.5 4V2C6.67157 2 6 1.32844 6 0.5H4ZM4.03737 -0.0124839C4.0127 0.155283 4 0.326463 4 0.5H6C6 0.424147 6.00555 0.35021 6.01609 0.278475L4.03737 -0.0124839ZM5.28278 -0.833668C4.87224 -0.942412 4.44208 -1 4 -1V1C4.26782 1 4.52589 1.03482 4.77068 1.09966L5.28278 -0.833668ZM4 -1C1.23858 -1 -1 1.23854 -1 4H1C1 2.34312 2.34314 1 4 1V-1ZM-1 4C-1 6.76146 1.23858 9 4 9V7C2.34314 7 1 5.65688 1 4H-1ZM4 9C6.76142 9 9 6.76146 9 4H7C7 5.65688 5.65686 7 4 7V9ZM9 4C9 3.55791 8.94237 3.12771 8.83368 2.71728L6.90032 3.22925C6.96516 3.4741 7 3.73225 7 4H9Z" transform="translate(9 3)" fill="#979797" mask="url(#path-2-inside-1)"/>
</svg>
