<?xml version="1.0" encoding="UTF-8"?>
<svg width="17px" height="17px" viewBox="0 0 17 17" version="1.1" xmlns="http://www.w3.org/2000/svg" xmlns:xlink="http://www.w3.org/1999/xlink">
    <!-- Generator: Sketch 53 (72520) - https://sketchapp.com -->
    <title>rating icon</title>
    <desc>Created with Sketch.</desc>
    <g id="Page-1" stroke="none" stroke-width="1" fill="none" fill-rule="evenodd">
        <g id="Expert's-Top-Picks-Copy-4" transform="translate(-281.000000, -308.000000)">
            <g id="rating" transform="translate(276.000000, 303.000000)">
                <g id="rating-icon" transform="translate(5.000000, 5.000000)">
                    <circle id="Oval" fill="#FFA92A" cx="8.5" cy="8.5" r="8.5"></circle>
                    <path d="M8.34571849,11.6578634 L6.04750408,12.9410064 C5.89494182,13.0261852 5.7022146,12.9715602 5.61703578,12.8189979 C5.5823008,12.7567847 5.56958371,12.6846678 5.58094401,12.6143262 L6.02885215,9.84093135 C6.0447457,9.74252035 6.01332786,9.64237425 5.94406809,9.57067755 L4.03265284,7.59200833 C3.91125407,7.46633808 3.91471678,7.26604907 4.04038702,7.14465029 C4.08740526,7.09923018 4.14733913,7.06949048 4.21194792,7.05952028 L6.82102037,6.65689779 C6.92554975,6.6407672 7.01510467,6.57346977 7.05967855,6.4775544 L8.21303918,3.99571965 C8.28667681,3.83726407 8.47482554,3.76850553 8.63328112,3.84214316 C8.70099146,3.87360958 8.7553912,3.92800931 8.78685761,3.99571965 L9.94021824,6.4775544 C9.98479212,6.57346977 10.074347,6.6407672 10.1788764,6.65689779 L12.7879489,7.05952028 C12.9606351,7.08616859 13.0790223,7.24776118 13.052374,7.42044743 C13.0424038,7.48505622 13.0126641,7.54499009 12.9672439,7.59200833 L11.0558287,9.57067755 C10.9865689,9.64237425 10.9551511,9.74252035 10.9710446,9.84093135 L11.4189528,12.6143262 C11.4468111,12.7868213 11.3295597,12.9492399 11.1570645,12.9770982 C11.0867229,12.9884585 11.0146059,12.9757414 10.9523927,12.9410064 L8.6541783,11.6578634 C8.55832252,11.604345 8.44157427,11.604345 8.34571849,11.6578634 Z" id="Star" fill="#FFFFFF"></path>
                </g>
            </g>
        </g>
    </g>
</svg>