<svg width="58" height="13" viewBox="0 0 58 13" version="1.1" xmlns="http://www.w3.org/2000/svg" xmlns:xlink="http://www.w3.org/1999/xlink">
<title>share btn</title>
<desc>Created using Figma</desc>
<g id="Canvas" transform="translate(-7034 -681)">
<g id="share btn">
<g id="SHARE">
<use xlink:href="#path0_fill" transform="translate(7056.2 680)" fill="#FF4135"/>
</g>
<g id="Combined Shape">
<use xlink:href="#path1_fill" transform="translate(7033 681.8)" fill="#FF4135"/>
</g>
</g>
</g>
<defs>
<path id="path0_fill" d="M 5.2136 4.3752C 5.1688 4.4536 5.12027 4.51147 5.068 4.5488C 5.01947 4.5824 4.95787 4.5992 4.8832 4.5992C 4.8048 4.5992 4.71893 4.5712 4.6256 4.5152C 4.536 4.45547 4.42773 4.39013 4.3008 4.3192C 4.17387 4.24827 4.02453 4.1848 3.8528 4.1288C 3.6848 4.06907 3.48507 4.0392 3.2536 4.0392C 3.04453 4.0392 2.8616 4.06533 2.7048 4.1176C 2.548 4.16613 2.41547 4.2352 2.3072 4.3248C 2.20267 4.4144 2.12427 4.52267 2.072 4.6496C 2.01973 4.7728 1.9936 4.90907 1.9936 5.0584C 1.9936 5.2488 2.04587 5.40747 2.1504 5.5344C 2.25867 5.66133 2.40053 5.7696 2.576 5.8592C 2.75147 5.9488 2.9512 6.02907 3.1752 6.1C 3.3992 6.17093 3.6288 6.24747 3.864 6.3296C 4.0992 6.408 4.3288 6.50133 4.5528 6.6096C 4.7768 6.71413 4.97653 6.84853 5.152 7.0128C 5.32747 7.17333 5.46747 7.3712 5.572 7.6064C 5.68027 7.8416 5.7344 8.1272 5.7344 8.4632C 5.7344 8.82907 5.67093 9.17253 5.544 9.4936C 5.4208 9.81093 5.23787 10.0891 4.9952 10.328C 4.75627 10.5632 4.4632 10.7499 4.116 10.888C 3.7688 11.0224 3.3712 11.0896 2.9232 11.0896C 2.6656 11.0896 2.41173 11.0635 2.1616 11.0112C 1.91147 10.9627 1.67067 10.8917 1.4392 10.7984C 1.21147 10.7051 0.9968 10.5931 0.7952 10.4624C 0.5936 10.3317 0.4144 10.1861 0.2576 10.0256L 0.7 9.3032C 0.737333 9.25093 0.785867 9.208 0.8456 9.1744C 0.905333 9.13707 0.9688 9.1184 1.036 9.1184C 1.12933 9.1184 1.23013 9.1576 1.3384 9.236C 1.44667 9.31067 1.57547 9.39467 1.7248 9.488C 1.87413 9.58133 2.04773 9.6672 2.2456 9.7456C 2.4472 9.82027 2.688 9.8576 2.968 9.8576C 3.39733 9.8576 3.7296 9.7568 3.9648 9.5552C 4.2 9.34987 4.3176 9.0568 4.3176 8.676C 4.3176 8.4632 4.26347 8.2896 4.1552 8.1552C 4.05067 8.0208 3.91067 7.9088 3.7352 7.8192C 3.55973 7.72587 3.36 7.64747 3.136 7.584C 2.912 7.52053 2.68427 7.45147 2.4528 7.3768C 2.22133 7.30213 1.9936 7.21253 1.7696 7.108C 1.5456 7.00347 1.34587 6.8672 1.1704 6.6992C 0.994933 6.5312 0.853067 6.32213 0.7448 6.072C 0.640267 5.81813 0.588 5.5064 0.588 5.1368C 0.588 4.84187 0.645867 4.5544 0.7616 4.2744C 0.881067 3.9944 1.0528 3.74613 1.2768 3.5296C 1.5008 3.31307 1.77707 3.13947 2.1056 3.0088C 2.43413 2.87813 2.8112 2.8128 3.2368 2.8128C 3.71467 2.8128 4.1552 2.88747 4.5584 3.0368C 4.9616 3.18613 5.30507 3.3952 5.5888 3.664L 5.2136 4.3752ZM 13.7431 2.9024L 13.7431 11L 12.2311 11L 12.2311 7.4608L 8.42871 7.4608L 8.42871 11L 6.91671 11L 6.91671 2.9024L 8.42871 2.9024L 8.42871 6.3856L 12.2311 6.3856L 12.2311 2.9024L 13.7431 2.9024ZM 19.693 7.9424L 18.7074 5.2488C 18.6589 5.12933 18.6085 4.98747 18.5562 4.8232C 18.504 4.65893 18.4517 4.4816 18.3994 4.2912C 18.3509 4.4816 18.3005 4.6608 18.2482 4.8288C 18.196 4.99307 18.1456 5.1368 18.097 5.26L 17.117 7.9424L 19.693 7.9424ZM 22.353 11L 21.1882 11C 21.0576 11 20.9512 10.9683 20.869 10.9048C 20.7869 10.8376 20.7253 10.7555 20.6842 10.6584L 20.0794 9.0064L 16.725 9.0064L 16.1202 10.6584C 16.0904 10.7443 16.0325 10.8227 15.9466 10.8936C 15.8608 10.9645 15.7544 11 15.6274 11L 14.4514 11L 17.6378 2.9024L 19.1722 2.9024L 22.353 11ZM 25.5066 6.7552C 25.7904 6.7552 26.0368 6.71973 26.2458 6.6488C 26.4586 6.57787 26.6322 6.4808 26.7666 6.3576C 26.9048 6.23067 27.0074 6.08133 27.0746 5.9096C 27.1418 5.73787 27.1754 5.54933 27.1754 5.344C 27.1754 4.93333 27.0392 4.61787 26.7666 4.3976C 26.4978 4.17733 26.0853 4.0672 25.529 4.0672L 24.5658 4.0672L 24.5658 6.7552L 25.5066 6.7552ZM 29.3818 11L 28.021 11C 27.7634 11 27.5768 10.8992 27.461 10.6976L 25.7586 8.1048C 25.6952 8.00773 25.6242 7.93867 25.5458 7.8976C 25.4712 7.85653 25.3592 7.836 25.2098 7.836L 24.5658 7.836L 24.5658 11L 23.0594 11L 23.0594 2.9024L 25.529 2.9024C 26.0778 2.9024 26.5482 2.96027 26.9402 3.076C 27.336 3.188 27.6589 3.34667 27.909 3.552C 28.1629 3.75733 28.3496 4.00373 28.469 4.2912C 28.5885 4.57493 28.6482 4.88853 28.6482 5.232C 28.6482 5.50453 28.6072 5.76213 28.525 6.0048C 28.4466 6.24747 28.3309 6.46773 28.1778 6.6656C 28.0285 6.86347 27.8418 7.03707 27.6178 7.1864C 27.3976 7.33573 27.1456 7.45333 26.8618 7.5392C 26.9589 7.5952 27.0485 7.6624 27.1306 7.7408C 27.2128 7.81547 27.2874 7.90507 27.3546 8.0096L 29.3818 11ZM 31.6365 4.1008L 31.6365 6.3464L 34.4701 6.3464L 34.4701 7.5056L 31.6365 7.5056L 31.6365 9.796L 35.2317 9.796L 35.2317 11L 30.1245 11L 30.1245 2.9024L 35.2317 2.9024L 35.2317 4.1008L 31.6365 4.1008Z"/>
<path id="path1_fill" fill-rule="evenodd" d="M 18.2471 6.46802C 18.6196 6.14874 18.6196 5.57251 18.2471 5.25317L 12.3428 0.192566C 11.8237 -0.252197 11.0225 0.116516 11.0225 0.799988L 11.0225 3.78925C 8.65918 4.4209 3.37988 6.01074 1.6167 8.01892C 1.50293 8.14874 1.38184 8.30927 1.2583 8.48834C 1.16113 8.62909 1.98389 9.36407 2.13867 9.29083C 3.83154 8.48859 6.61377 7.79987 11.0225 8.17407L 11.0225 10.9212C 11.0225 11.6047 11.8237 11.9734 12.3428 11.5286L 18.2471 6.46802Z"/>
</defs>
</svg>
