<svg width="12" height="12" viewBox="0 0 12 12" version="1.1" xmlns="http://www.w3.org/2000/svg" xmlns:xlink="http://www.w3.org/1999/xlink">
<g id="Canvas" fill="none">
<path id="Star" fill-rule="evenodd" clip-rule="evenodd" d="M 7.48767 11.4287C 7.18459 11.2594 6.81541 11.2594 6.51233 11.4287L 4.68973 12.4467C 3.95983 12.8545 3.08161 12.2397 3.21484 11.4144L 3.59156 9.08065C 3.64175 8.7697 3.54251 8.45327 3.32373 8.22668L 1.68318 6.5276C 1.11998 5.9443 1.44865 4.96842 2.24999 4.8447L 4.41385 4.51063C 4.74428 4.45961 5.02735 4.24683 5.1682 3.9436L 6.09306 1.9525C 6.45149 1.18086 7.54851 1.18086 7.90694 1.9525L 8.8318 3.9436C 8.97265 4.24683 9.25572 4.45961 9.58615 4.51063L 11.75 4.8447C 12.5513 4.96842 12.88 5.9443 12.3168 6.5276L 10.6763 8.22668C 10.4575 8.45327 10.3582 8.7697 10.4084 9.08065L 10.7852 11.4144C 10.9184 12.2397 10.0402 12.8545 9.31027 12.4467L 7.48767 11.4287Z" transform="translate(-1.40234 -1.37354)" fill="white"/>
</g>
</svg>
