<svg width="170" height="41" viewBox="0 0 170 41" fill="none" xmlns="http://www.w3.org/2000/svg">
<path fill-rule="evenodd" clip-rule="evenodd" d="M10.4365 18.7027C9.3942 19.5676 8.07128 20 6.46771 20C5.39866 20 4.28508 19.8063 3.12695 19.4189C1.96881 19.0315 0.926508 18.4595 0 17.7027L1.76392 15.1622C3.26059 16.3333 4.85523 16.9189 6.54788 16.9189C7.06459 16.9189 7.47439 16.8153 7.77728 16.6081C8.08018 16.4009 8.23163 16.1261 8.23163 15.7838C8.23163 15.4414 8.02227 15.1261 7.60356 14.8378C7.18485 14.5495 6.57907 14.2793 5.78619 14.027C4.99331 13.7748 4.38753 13.5586 3.96882 13.3784C3.55011 13.1982 3.0735 12.9369 2.53898 12.5946C1.45211 11.9099 0.908686 10.8964 0.908686 9.55405C0.908686 8.21171 1.4432 7.11712 2.51225 6.27027C3.5813 5.42342 4.96213 5 6.65479 5C8.34745 5 10.0401 5.57657 11.7327 6.72973L10.2361 9.43243C8.98886 8.56756 7.74611 8.13514 6.5078 8.13514C5.26948 8.13514 4.65033 8.47747 4.65033 9.16216C4.65033 9.54054 4.84632 9.83784 5.23831 10.0541C5.63029 10.2703 6.28062 10.5225 7.18931 10.8108C8.098 11.0991 8.74387 11.3198 9.12695 11.473C9.51002 11.6261 9.96882 11.8649 10.5033 12.1892C11.5011 12.8018 12 13.8243 12 15.2568C12 16.6892 11.4788 17.8378 10.4365 18.7027ZM18.9595 8.22914V14.7058C18.9595 15.2612 19.108 15.6957 19.4051 16.0092C19.7021 16.3227 20.0549 16.4795 20.4633 16.4795C21.243 16.4795 21.9021 16.1391 22.4405 15.4583L24 18.2801C22.7004 19.4267 21.3312 20 19.8924 20C18.4536 20 17.2376 19.5431 16.2443 18.6294C15.251 17.7157 14.7544 16.4705 14.7544 14.8939V8.22914H13V5.32673H14.7544V1C17.0768 1 18.9595 2.81682 18.9595 5.05799V5.32673H22.5797V8.22914H18.9595ZM27.9831 14.8896C28.6386 15.6299 29.4775 16 30.5 16C31.5225 16 32.3614 15.6299 33.0169 14.8896C33.6723 14.1494 34 13.1906 34 12.0134C34 10.8361 33.6723 9.87291 33.0169 9.12375C32.3614 8.37458 31.5225 8 30.5 8C29.4775 8 28.6386 8.37458 27.9831 9.12375C27.3277 9.87291 27 10.8361 27 12.0134C27 13.1906 27.3277 14.1494 27.9831 14.8896ZM35.8647 17.8378C34.4411 19.2793 32.6529 20 30.5 20C28.3471 20 26.5589 19.2793 25.1353 17.8378C23.7118 16.3964 23 14.6216 23 12.5135C23 10.4054 23.7118 8.62613 25.1353 7.17568C26.5589 5.72522 28.3471 5 30.5 5C32.6529 5 34.4411 5.72522 35.8647 7.17568C37.2882 8.62613 38 10.4054 38 12.5135C38 14.6216 37.2882 16.3964 35.8647 17.8378ZM46.8869 16.4054C48.2515 16.4054 49.4795 15.7297 50.5711 14.3784L53 17.0811C51.1079 19.027 49.0611 20 46.8596 20C44.6582 20 42.7979 19.3108 41.2788 17.9324C39.7596 16.554 39 14.7523 39 12.527C39 10.3018 39.7687 8.491 41.306 7.09459C42.8434 5.69819 44.6673 5 46.7778 5C47.833 5 48.9019 5.21621 49.9844 5.64865C51.0669 6.08108 52.0175 6.72072 52.8363 7.56757L50.7076 10.3243C50.2346 9.76576 49.6569 9.33333 48.9747 9.02703C48.2924 8.72072 47.6147 8.56757 46.9415 8.56757C45.8681 8.56757 44.9448 8.91441 44.1715 9.60811C43.3983 10.3018 43.0117 11.2658 43.0117 12.5C43.0117 13.7342 43.3983 14.6937 44.1715 15.3784C44.9448 16.0631 45.8499 16.4054 46.8869 16.4054ZM58.0856 20H54V4.04313C54 1.81017 55.8292 0 58.0856 0V10.2695L62.6342 5.4717H67.7821L62.1984 11.3477L68 20H63.1518L59.4202 14.4474L58.0856 15.8221V20ZM75.8869 16.4054C77.2515 16.4054 78.4795 15.7297 79.5711 14.3784L82 17.0811C80.1079 19.027 78.0611 20 75.8596 20C73.6582 20 71.7979 19.3108 70.2788 17.9324C68.7596 16.554 68 14.7523 68 12.527C68 10.3018 68.7687 8.491 70.306 7.09459C71.8434 5.69819 73.6673 5 75.7778 5C76.833 5 77.9019 5.21621 78.9844 5.64865C80.0669 6.08108 81.0175 6.72072 81.8363 7.56757L79.7076 10.3243C79.2346 9.76576 78.6569 9.33333 77.9747 9.02703C77.2924 8.72072 76.6147 8.56757 75.9415 8.56757C74.8681 8.56757 73.9448 8.91441 73.1715 9.60811C72.3983 10.3018 72.0117 11.2658 72.0117 12.5C72.0117 13.7342 72.3983 14.6937 73.1715 15.3784C73.9448 16.0631 74.8499 16.4054 75.8869 16.4054ZM86.8767 12.1833V20H83V0C85.1411 0 86.8767 1.81017 86.8767 4.04313V7.1159C88.0484 5.876 89.3622 5.25606 90.8181 5.25606C92.274 5.25606 93.5017 5.79514 94.501 6.87332C95.5003 7.95149 96 9.38903 96 11.186V20H92.1233V12.0755C92.1233 9.84725 91.3393 8.73315 89.7714 8.73315C88.996 8.73315 88.3198 9.02515 87.7425 9.60916C87.1653 10.1932 86.8767 11.0512 86.8767 12.1833ZM107.228 19.7838V18.027C106.194 19.3423 104.915 20 103.39 20C101.865 20 100.586 19.5541 99.5514 18.6622C98.5171 17.7703 98 16.5811 98 15.0946C98 13.6081 98.535 12.4955 99.6049 11.7568C100.675 11.018 102.137 10.6486 103.992 10.6486H106.988V10.5676C106.988 9.01801 106.176 8.24324 104.553 8.24324C103.858 8.24324 103.122 8.38288 102.347 8.66216C101.571 8.94144 100.916 9.28829 100.381 9.7027L98.5885 7.08108C100.479 5.69369 102.636 5 105.062 5C106.809 5 108.236 5.44144 109.342 6.32432C110.447 7.20721 111 8.60359 111 10.5135V15.973C111 18.0776 109.311 19.7838 107.228 19.7838ZM107 13.6724V13H104.446C102.815 13 102 13.4828 102 14.4483C102 14.9483 102.195 15.3319 102.584 15.5991C102.974 15.8664 103.531 16 104.255 16C104.98 16 105.619 15.7888 106.171 15.3664C106.724 14.944 107 14.3793 107 13.6724ZM123.437 18.7027C122.394 19.5676 121.071 20 119.468 20C118.399 20 117.285 19.8063 116.127 19.4189C114.969 19.0315 113.927 18.4595 113 17.7027L114.764 15.1622C116.261 16.3333 117.855 16.9189 119.548 16.9189C120.065 16.9189 120.474 16.8153 120.777 16.6081C121.08 16.4009 121.232 16.1261 121.232 15.7838C121.232 15.4414 121.022 15.1261 120.604 14.8378C120.185 14.5495 119.579 14.2793 118.786 14.027C117.993 13.7748 117.388 13.5586 116.969 13.3784C116.55 13.1982 116.073 12.9369 115.539 12.5946C114.452 11.9099 113.909 10.8964 113.909 9.55405C113.909 8.21171 114.443 7.11712 115.512 6.27027C116.581 5.42342 117.962 5 119.655 5C121.347 5 123.04 5.57657 124.733 6.72973L123.236 9.43243C121.989 8.56756 120.746 8.13514 119.508 8.13514C118.269 8.13514 117.65 8.47747 117.65 9.16216C117.65 9.54054 117.846 9.83784 118.238 10.0541C118.63 10.2703 119.281 10.5225 120.189 10.8108C121.098 11.0991 121.744 11.3198 122.127 11.473C122.51 11.6261 122.969 11.8649 123.503 12.1892C124.501 12.8018 125 13.8243 125 15.2568C125 16.6892 124.479 17.8378 123.437 18.7027ZM138.859 17.6757C137.286 19.2252 135.441 20 133.324 20C131.207 20 129.457 19.3198 128.074 17.9595C126.691 16.5991 126 14.7748 126 12.4865C126 10.1982 126.704 8.37839 128.113 7.02703C129.522 5.67567 131.185 5 133.104 5C135.022 5 136.651 5.6036 137.991 6.81081C139.33 8.01802 140 9.67567 140 11.7838V13.9459H129.837C129.958 14.7387 130.356 15.3874 131.03 15.8919C131.704 16.3964 132.464 16.6486 133.311 16.6486C134.677 16.6486 135.8 16.1712 136.681 15.2162L138.859 17.6757ZM135.085 8.78C134.559 8.26 133.919 8 133.165 8C132.411 8 131.72 8.27 131.093 8.81C130.466 9.35 130.102 10.08 130 11H136C135.915 10.04 135.61 9.3 135.085 8.78Z" transform="translate(30 1)" fill="white"/>
<path fill-rule="evenodd" clip-rule="evenodd" d="M12.5 25C19.4036 25 25 19.4036 25 12.5C25 5.59644 19.4036 0 12.5 0C5.59644 0 0 5.59644 0 12.5C0 19.4036 5.59644 25 12.5 25ZM19.0781 10.9795L19.0737 10.9839L15.4883 7.39844C13.2363 5.14648 9.58417 5.14722 7.33105 7.40039C5.07791 9.65356 5.07697 13.3057 7.32892 15.5576L10.9144 19.1431L10.91 19.1475C11.1528 19.4595 11.1307 19.9111 10.8438 20.198C10.5568 20.4849 10.1053 20.5071 9.79327 20.2642L9.78894 20.2686L6.20349 16.6831C3.33029 13.8098 3.33151 9.15039 6.20618 6.27563C9.08087 3.40088 13.7405 3.39966 16.6137 6.27295L20.1992 9.8584L20.1948 9.86279C20.4376 10.1748 20.4155 10.6262 20.1285 10.9133C19.8416 11.2002 19.3901 11.2222 19.0781 10.9795ZM10.7747 15.4866C10.4639 15.7974 10.4639 16.3013 10.7747 16.6121L14.1486 19.9861C14.4594 20.2969 14.9633 20.2969 15.274 19.9861C15.5848 19.6753 15.5848 19.1714 15.274 18.8606L11.9001 15.4866C11.5894 15.1758 11.0854 15.1758 10.7747 15.4866ZM14.5722 15.7671C14.2615 15.4563 14.2615 14.9524 14.5722 14.6416C14.883 14.3308 15.3869 14.3308 15.6976 14.6416L19.0716 18.0156C19.3824 18.3264 19.3824 18.8303 19.0716 19.1411C18.7609 19.4519 18.257 19.4519 17.9462 19.1411L14.5722 15.7671ZM16.4716 11.8987C16.1608 12.2095 16.1608 12.7134 16.4716 13.0242L19.8455 16.3982C20.1563 16.709 20.6602 16.709 20.9709 16.3982C21.2817 16.0874 21.2817 15.5835 20.9709 15.2727L17.597 11.8987C17.2863 11.5879 16.7823 11.5879 16.4716 11.8987ZM9.68524 13.342C10.0543 12.9731 10.0544 12.3748 9.68561 12.0061C9.31671 11.6372 8.71857 11.6372 8.34949 12.0063C7.98047 12.3755 7.98029 12.9736 8.34912 13.3425C8.71802 13.7112 9.31622 13.7112 9.68524 13.342ZM13.2729 8.4187C13.6417 8.78735 13.6416 9.38574 13.2725 9.75464C12.9035 10.1238 12.3053 10.1238 11.9364 9.75513C11.5676 9.38623 11.5677 8.78809 11.9368 8.41895C12.3058 8.0498 12.904 8.0498 13.2729 8.4187Z" fill="white"/>
<path opacity="0.698709" d="M2.73217 10.536C2.92817 10.8 3.14217 10.986 3.37417 11.094C3.61017 11.202 3.86817 11.256 4.14817 11.256C4.72017 11.256 5.15817 11.054 5.46217 10.65C5.76617 10.246 5.91817 9.644 5.91817 8.844C5.91817 8.1 5.78217 7.554 5.51017 7.206C5.24217 6.854 4.85817 6.678 4.35817 6.678C4.01017 6.678 3.70617 6.758 3.44617 6.918C3.19017 7.078 2.95217 7.304 2.73217 7.596V10.536ZM2.73217 6.798C2.98817 6.502 3.27617 6.266 3.59617 6.09C3.92017 5.914 4.29217 5.826 4.71217 5.826C5.06817 5.826 5.38817 5.894 5.67217 6.03C5.96017 6.166 6.20417 6.364 6.40417 6.624C6.60417 6.88 6.75617 7.192 6.86017 7.56C6.96817 7.928 7.02217 8.342 7.02217 8.802C7.02217 9.294 6.96217 9.742 6.84217 10.146C6.72217 10.55 6.54817 10.896 6.32017 11.184C6.09617 11.468 5.82217 11.69 5.49817 11.85C5.17417 12.006 4.81017 12.084 4.40617 12.084C4.00617 12.084 3.66817 12.01 3.39217 11.862C3.12017 11.71 2.88217 11.496 2.67817 11.22L2.62417 11.772C2.59217 11.924 2.50017 12 2.34817 12H1.65817V3.162H2.73217V6.798ZM13.079 5.922L9.68895 13.794C9.65295 13.874 9.60695 13.938 9.55095 13.986C9.49895 14.034 9.41695 14.058 9.30495 14.058H8.51295L9.62295 11.646L7.11495 5.922H8.03895C8.13095 5.922 8.20295 5.946 8.25495 5.994C8.31095 6.038 8.34895 6.088 8.36895 6.144L9.99495 9.972C10.059 10.14 10.113 10.316 10.157 10.5C10.213 10.312 10.273 10.134 10.337 9.966L11.915 6.144C11.939 6.08 11.979 6.028 12.035 5.988C12.095 5.944 12.161 5.922 12.233 5.922H13.079ZM27.2583 3.402L24.5763 12H23.5323L21.3543 5.442C21.3343 5.378 21.3143 5.31 21.2943 5.238C21.2783 5.166 21.2603 5.09 21.2403 5.01C21.2203 5.09 21.2003 5.166 21.1803 5.238C21.1603 5.31 21.1403 5.378 21.1203 5.442L18.9303 12H17.8863L15.2043 3.402H16.1703C16.2743 3.402 16.3603 3.428 16.4283 3.48C16.5003 3.532 16.5463 3.598 16.5663 3.678L18.3423 9.654C18.3703 9.762 18.3963 9.878 18.4203 10.002C18.4483 10.126 18.4743 10.258 18.4983 10.398C18.5263 10.258 18.5543 10.126 18.5823 10.002C18.6143 9.874 18.6483 9.758 18.6843 9.654L20.7063 3.678C20.7303 3.61 20.7763 3.548 20.8443 3.492C20.9163 3.432 21.0023 3.402 21.1023 3.402H21.4383C21.5423 3.402 21.6263 3.428 21.6903 3.48C21.7543 3.532 21.8023 3.598 21.8343 3.678L23.8503 9.654C23.8863 9.758 23.9183 9.87 23.9463 9.99C23.9783 10.11 24.0083 10.236 24.0363 10.368C24.0563 10.236 24.0783 10.11 24.1023 9.99C24.1263 9.87 24.1523 9.758 24.1803 9.654L25.9623 3.678C25.9823 3.606 26.0263 3.542 26.0943 3.486C26.1663 3.43 26.2523 3.402 26.3523 3.402H27.2583ZM31.2888 8.298C31.2888 8.05 31.2528 7.824 31.1808 7.62C31.1128 7.412 31.0108 7.234 30.8748 7.086C30.7428 6.934 30.5808 6.818 30.3888 6.738C30.1968 6.654 29.9788 6.612 29.7348 6.612C29.2228 6.612 28.8168 6.762 28.5168 7.062C28.2208 7.358 28.0368 7.77 27.9648 8.298H31.2888ZM32.1528 11.148C32.0208 11.308 31.8628 11.448 31.6788 11.568C31.4948 11.684 31.2968 11.78 31.0848 11.856C30.8768 11.932 30.6608 11.988 30.4368 12.024C30.2128 12.064 29.9908 12.084 29.7708 12.084C29.3508 12.084 28.9628 12.014 28.6068 11.874C28.2548 11.73 27.9488 11.522 27.6888 11.25C27.4328 10.974 27.2328 10.634 27.0888 10.23C26.9448 9.826 26.8728 9.362 26.8728 8.838C26.8728 8.414 26.9368 8.018 27.0648 7.65C27.1968 7.282 27.3848 6.964 27.6288 6.696C27.8728 6.424 28.1708 6.212 28.5228 6.06C28.8748 5.904 29.2708 5.826 29.7108 5.826C30.0748 5.826 30.4108 5.888 30.7188 6.012C31.0308 6.132 31.2988 6.308 31.5228 6.54C31.7508 6.768 31.9288 7.052 32.0568 7.392C32.1848 7.728 32.2488 8.112 32.2488 8.544C32.2488 8.712 32.2308 8.824 32.1948 8.88C32.1588 8.936 32.0908 8.964 31.9908 8.964H27.9288C27.9408 9.348 27.9928 9.682 28.0848 9.966C28.1808 10.25 28.3128 10.488 28.4808 10.68C28.6488 10.868 28.8488 11.01 29.0808 11.106C29.3128 11.198 29.5728 11.244 29.8608 11.244C30.1288 11.244 30.3588 11.214 30.5508 11.154C30.7468 11.09 30.9148 11.022 31.0548 10.95C31.1948 10.878 31.3108 10.812 31.4028 10.752C31.4988 10.688 31.5808 10.656 31.6488 10.656C31.7368 10.656 31.8048 10.69 31.8528 10.758L32.1528 11.148ZM36.4689 9.264C35.9769 9.28 35.5569 9.32 35.2089 9.384C34.8649 9.444 34.5829 9.524 34.3629 9.624C34.1469 9.724 33.9889 9.842 33.8889 9.978C33.7929 10.114 33.7449 10.266 33.7449 10.434C33.7449 10.594 33.7709 10.732 33.8229 10.848C33.8749 10.964 33.9449 11.06 34.0329 11.136C34.1249 11.208 34.2309 11.262 34.3509 11.298C34.4749 11.33 34.6069 11.346 34.7469 11.346C34.9349 11.346 35.1069 11.328 35.2629 11.292C35.4189 11.252 35.5649 11.196 35.7009 11.124C35.8409 11.052 35.9729 10.966 36.0969 10.866C36.2249 10.766 36.3489 10.652 36.4689 10.524V9.264ZM33.0189 6.78C33.3549 6.456 33.7169 6.214 34.1049 6.054C34.4929 5.894 34.9229 5.814 35.3949 5.814C35.7349 5.814 36.0369 5.87 36.3009 5.982C36.5649 6.094 36.7869 6.25 36.9669 6.45C37.1469 6.65 37.2829 6.892 37.3749 7.176C37.4669 7.46 37.5129 7.772 37.5129 8.112V12H37.0389C36.9349 12 36.8549 11.984 36.7989 11.952C36.7429 11.916 36.6989 11.848 36.6669 11.748L36.5469 11.172C36.3869 11.32 36.2309 11.452 36.0789 11.568C35.9269 11.68 35.7669 11.776 35.5989 11.856C35.4309 11.932 35.2509 11.99 35.0589 12.03C34.8709 12.074 34.6609 12.096 34.4289 12.096C34.1929 12.096 33.9709 12.064 33.7629 12C33.5549 11.932 33.3729 11.832 33.2169 11.7C33.0649 11.568 32.9429 11.402 32.8509 11.202C32.7629 10.998 32.7189 10.758 32.7189 10.482C32.7189 10.242 32.7849 10.012 32.9169 9.792C33.0489 9.568 33.2629 9.37 33.5589 9.198C33.8549 9.026 34.2409 8.886 34.7169 8.778C35.1929 8.666 35.7769 8.602 36.4689 8.586V8.112C36.4689 7.64 36.3669 7.284 36.1629 7.044C35.9589 6.8 35.6609 6.678 35.2689 6.678C35.0049 6.678 34.7829 6.712 34.6029 6.78C34.4269 6.844 34.2729 6.918 34.1409 7.002C34.0129 7.082 33.9009 7.156 33.8049 7.224C33.7129 7.288 33.6209 7.32 33.5289 7.32C33.4569 7.32 33.3949 7.302 33.3429 7.266C33.2909 7.226 33.2469 7.178 33.2109 7.122L33.0189 6.78ZM39.858 3.162V12H38.79V3.162H39.858ZM43.0703 12.096C42.5903 12.096 42.2203 11.962 41.9603 11.694C41.7043 11.426 41.5763 11.04 41.5763 10.536V6.816H40.8443C40.7803 6.816 40.7263 6.798 40.6823 6.762C40.6383 6.722 40.6163 6.662 40.6163 6.582V6.156L41.6123 6.03L41.8583 4.152C41.8703 4.092 41.8963 4.044 41.9363 4.008C41.9803 3.968 42.0363 3.948 42.1043 3.948H42.6443V6.042H44.4023V6.816H42.6443V10.464C42.6443 10.72 42.7063 10.91 42.8303 11.034C42.9543 11.158 43.1143 11.22 43.3103 11.22C43.4223 11.22 43.5183 11.206 43.5983 11.178C43.6823 11.146 43.7543 11.112 43.8143 11.076C43.8743 11.04 43.9243 11.008 43.9643 10.98C44.0083 10.948 44.0463 10.932 44.0783 10.932C44.1343 10.932 44.1843 10.966 44.2283 11.034L44.5403 11.544C44.3563 11.716 44.1343 11.852 43.8743 11.952C43.6143 12.048 43.3463 12.096 43.0703 12.096ZM46.1933 6.732C46.4533 6.456 46.7413 6.236 47.0573 6.072C47.3733 5.908 47.7373 5.826 48.1493 5.826C48.4813 5.826 48.7733 5.882 49.0253 5.994C49.2813 6.102 49.4933 6.258 49.6613 6.462C49.8333 6.662 49.9633 6.904 50.0513 7.188C50.1393 7.472 50.1833 7.786 50.1833 8.13V12H49.1093V8.13C49.1093 7.67 49.0033 7.314 48.7913 7.062C48.5833 6.806 48.2653 6.678 47.8373 6.678C47.5213 6.678 47.2253 6.754 46.9493 6.906C46.6773 7.058 46.4253 7.264 46.1933 7.524V12H45.1193V3.162H46.1933V6.732ZM52.553 5.922V12H51.485V5.922H52.553ZM52.781 4.014C52.781 4.118 52.759 4.216 52.715 4.308C52.675 4.396 52.619 4.476 52.547 4.548C52.479 4.616 52.397 4.67 52.301 4.71C52.209 4.75 52.111 4.77 52.007 4.77C51.903 4.77 51.805 4.75 51.713 4.71C51.625 4.67 51.547 4.616 51.479 4.548C51.411 4.476 51.357 4.396 51.317 4.308C51.277 4.216 51.257 4.118 51.257 4.014C51.257 3.91 51.277 3.812 51.317 3.72C51.357 3.624 51.411 3.542 51.479 3.474C51.547 3.402 51.625 3.346 51.713 3.306C51.805 3.266 51.903 3.246 52.007 3.246C52.111 3.246 52.209 3.266 52.301 3.306C52.397 3.346 52.479 3.402 52.547 3.474C52.619 3.542 52.675 3.624 52.715 3.72C52.759 3.812 52.781 3.91 52.781 4.014ZM58.1521 7.002C58.1201 7.046 58.0881 7.08 58.0561 7.104C58.0241 7.128 57.9801 7.14 57.9241 7.14C57.8641 7.14 57.7981 7.116 57.7261 7.068C57.6541 7.016 57.5641 6.96 57.4561 6.9C57.3521 6.84 57.2221 6.786 57.0661 6.738C56.9141 6.686 56.7261 6.66 56.5021 6.66C56.2021 6.66 55.9381 6.714 55.7101 6.822C55.4821 6.926 55.2901 7.078 55.1341 7.278C54.9821 7.478 54.8661 7.72 54.7861 8.004C54.7101 8.288 54.6721 8.606 54.6721 8.958C54.6721 9.326 54.7141 9.654 54.7981 9.942C54.8821 10.226 55.0001 10.466 55.1521 10.662C55.3081 10.854 55.4941 11.002 55.7101 11.106C55.9301 11.206 56.1761 11.256 56.4481 11.256C56.7081 11.256 56.9221 11.226 57.0901 11.166C57.2581 11.102 57.3961 11.032 57.5041 10.956C57.6161 10.88 57.7081 10.812 57.7801 10.752C57.8561 10.688 57.9301 10.656 58.0021 10.656C58.0901 10.656 58.1581 10.69 58.2061 10.758L58.5061 11.148C58.3741 11.312 58.2241 11.452 58.0561 11.568C57.8881 11.684 57.7061 11.782 57.5101 11.862C57.3181 11.938 57.1161 11.994 56.9041 12.03C56.6921 12.066 56.4761 12.084 56.2561 12.084C55.8761 12.084 55.5221 12.014 55.1941 11.874C54.8701 11.734 54.5881 11.532 54.3481 11.268C54.1081 11 53.9201 10.672 53.7841 10.284C53.6481 9.896 53.5801 9.454 53.5801 8.958C53.5801 8.506 53.6421 8.088 53.7661 7.704C53.8941 7.32 54.0781 6.99 54.3181 6.714C54.5621 6.434 54.8601 6.216 55.2121 6.06C55.5681 5.904 55.9761 5.826 56.4361 5.826C56.8641 5.826 57.2401 5.896 57.5641 6.036C57.8921 6.172 58.1821 6.366 58.4341 6.618L58.1521 7.002ZM62.5609 9.264C62.0689 9.28 61.6489 9.32 61.3009 9.384C60.9569 9.444 60.6749 9.524 60.4549 9.624C60.2389 9.724 60.0809 9.842 59.9809 9.978C59.8849 10.114 59.8369 10.266 59.8369 10.434C59.8369 10.594 59.8629 10.732 59.9149 10.848C59.9669 10.964 60.0369 11.06 60.1249 11.136C60.2169 11.208 60.3229 11.262 60.4429 11.298C60.5669 11.33 60.6989 11.346 60.8389 11.346C61.0269 11.346 61.1989 11.328 61.3549 11.292C61.5109 11.252 61.6569 11.196 61.7929 11.124C61.9329 11.052 62.0649 10.966 62.1889 10.866C62.3169 10.766 62.4409 10.652 62.5609 10.524V9.264ZM59.1109 6.78C59.4469 6.456 59.8089 6.214 60.1969 6.054C60.5849 5.894 61.0149 5.814 61.4869 5.814C61.8269 5.814 62.1289 5.87 62.3929 5.982C62.6569 6.094 62.8789 6.25 63.0589 6.45C63.2389 6.65 63.3749 6.892 63.4669 7.176C63.5589 7.46 63.6049 7.772 63.6049 8.112V12H63.1309C63.0269 12 62.9469 11.984 62.8909 11.952C62.8349 11.916 62.7909 11.848 62.7589 11.748L62.6389 11.172C62.4789 11.32 62.3229 11.452 62.1709 11.568C62.0189 11.68 61.8589 11.776 61.6909 11.856C61.5229 11.932 61.3429 11.99 61.1509 12.03C60.9629 12.074 60.7529 12.096 60.5209 12.096C60.2849 12.096 60.0629 12.064 59.8549 12C59.6469 11.932 59.4649 11.832 59.3089 11.7C59.1569 11.568 59.0349 11.402 58.9429 11.202C58.8549 10.998 58.8109 10.758 58.8109 10.482C58.8109 10.242 58.8769 10.012 59.0089 9.792C59.1409 9.568 59.3549 9.37 59.6509 9.198C59.9469 9.026 60.3329 8.886 60.8089 8.778C61.2849 8.666 61.8689 8.602 62.5609 8.586V8.112C62.5609 7.64 62.4589 7.284 62.2549 7.044C62.0509 6.8 61.7529 6.678 61.3609 6.678C61.0969 6.678 60.8749 6.712 60.6949 6.78C60.5189 6.844 60.3649 6.918 60.2329 7.002C60.1049 7.082 59.9929 7.156 59.8969 7.224C59.8049 7.288 59.7129 7.32 59.6209 7.32C59.5489 7.32 59.4869 7.302 59.4349 7.266C59.3829 7.226 59.3389 7.178 59.3029 7.122L59.1109 6.78Z" transform="translate(101 26)" fill="white"/>
</svg>
