<?xml version="1.0" encoding="UTF-8"?>
<svg width="23px" height="23px" viewBox="0 0 23 23" version="1.1" xmlns="http://www.w3.org/2000/svg" xmlns:xlink="http://www.w3.org/1999/xlink">
    <!-- Generator: Sketch 50.2 (55047) - http://www.bohemiancoding.com/sketch -->
    <title>Group 2</title>
    <desc>Created with Sketch.</desc>
    <defs></defs>
    <g id="Website---Blog" stroke="none" stroke-width="1" fill="none" fill-rule="evenodd">
        <g id="&gt;-My-Profile-,-account" transform="translate(-173.000000, -464.000000)">
            <g id="Group-2" transform="translate(173.000000, 464.000000)">
                <circle id="Oval" fill="#FF5030" cx="11.5" cy="11.5" r="11.5"></circle>
                <path d="M10.6730908,16.0423821 L8.18027268,17.4348436 C7.69811123,17.7041739 7.08890684,17.5316401 6.81957661,17.0494786 C6.70972522,16.85282 6.66948914,16.6248326 6.70538685,16.4024516 L7.21010234,13.2758147 C7.26029732,12.9648643 7.16105647,12.6484379 6.94227252,12.4218474 L4.75951381,10.1612045 C4.37589358,9.76389612 4.38699002,9.13082838 4.78429842,8.74720815 C4.93287076,8.60375445 5.12221476,8.50982004 5.32632181,8.47830789 L8.23949919,8.0285416 C8.56992917,7.97752642 8.85300253,7.76475001 8.99385199,7.46152082 L10.2538211,4.74898364 C10.486482,4.24809711 11.0811398,4.03065733 11.5820263,4.2633183 C11.7961764,4.36279069 11.9682193,4.5348335 12.0676916,4.74898364 L13.3276607,7.46152082 C13.4685102,7.76475001 13.7515835,7.97752642 14.0820135,8.0285416 L16.9951909,8.47830789 C17.5410088,8.56257688 17.9151681,9.07336322 17.8308991,9.61918112 C17.799387,9.82328817 17.7054526,10.0126322 17.5619989,10.1612045 L15.3792402,12.4218474 C15.1604562,12.6484379 15.0612154,12.9648643 15.1114104,13.2758147 L15.6161258,16.4024516 C15.7041387,16.9476784 15.3334937,17.4610205 14.788267,17.5490334 C14.565886,17.5849311 14.3378986,17.544695 14.14124,17.4348436 L11.6484219,16.0423821 C11.3453502,15.8730895 10.9761625,15.8730895 10.6730908,16.0423821 Z" id="Star" fill="#FFFFFF"></path>
            </g>
        </g>
    </g>
</svg>