<svg width="37" height="37" viewBox="0 0 37 37" version="1.1" xmlns="http://www.w3.org/2000/svg" xmlns:xlink="http://www.w3.org/1999/xlink">
<title>Fill 93</title>
<desc>Created using Figma</desc>
<g id="Canvas" transform="translate(-3836 -2187)">
<g id="Fill 93">
<use xlink:href="#path0_fill" transform="translate(3836 2187)" fill="#444444"/>
</g>
</g>
<defs>
<path id="path0_fill" fill-rule="evenodd" d="M 25.8676 15.2187C 25.8676 20.2333 22.0497 26.0169 15.0683 26.0169C 12.9246 26.0169 10.93 25.3891 9.25 24.3126C 9.54716 24.3473 9.84894 24.3646 10.1553 24.3646C 11.9337 24.3646 13.5697 23.7587 14.8694 22.7401C 13.2078 22.71 11.8065 21.6127 11.3232 20.105C 11.5556 20.1489 11.7926 20.1721 12.0377 20.1721C 12.3834 20.1721 12.7188 20.1258 13.0379 20.0391C 11.3012 19.6911 9.99347 18.1567 9.99347 16.3183C 9.99347 16.3021 9.99347 16.2859 9.99347 16.2697C 10.5045 16.5541 11.0907 16.7253 11.7128 16.7449C 10.6942 16.0639 10.0235 14.9019 10.0235 13.5861C 10.0235 12.89 10.2108 12.2379 10.5381 11.6771C 12.41 13.9734 15.207 15.4846 18.3612 15.643C 18.2965 15.3655 18.263 15.0753 18.263 14.7781C 18.263 12.6819 19.9627 10.9822 22.0578 10.9822C 23.1504 10.9822 24.1367 11.4435 24.8282 12.1812C 25.693 12.0112 26.5059 11.6956 27.2389 11.2608C 26.9557 12.1465 26.3533 12.89 25.5705 13.3606C 26.3382 13.2681 27.069 13.0646 27.75 12.7628C 27.2412 13.5236 26.5972 14.1919 25.8561 14.7273C 25.863 14.8903 25.8676 15.0533 25.8676 15.2187ZM 0 35C 0 36.1046 0.89543 37 2 37L 35 37C 36.1046 37 37 36.1046 37 35L 37 2C 37 0.895432 36.1046 0 35 0L 2 0C 0.895432 0 0 0.89543 0 2L 0 35Z"/>
</defs>
</svg>
