<svg width="140" height="18" viewBox="0 0 140 18" version="1.1" xmlns="http://www.w3.org/2000/svg" xmlns:xlink="http://www.w3.org/1999/xlink">
<title>Group 3</title>
<desc>Created using Figma</desc>
<g id="Canvas" transform="translate(-9302 -282)">
<g id="Group 3">
<g id="WEALTHICA">
<use xlink:href="#path0_fill" transform="translate(9338 281)" fill="#6A269B"/>
</g>
<g id="LOGO">
<use xlink:href="#path1_stroke" transform="translate(9302.87 282.944)" fill="#7F3EAB"/>
</g>
</g>
</g>
<defs>
<path id="path0_fill" d="M 12.5625 17L 9.80469 17L 8.25781 11C 8.20052 10.7865 8.10156 10.3464 7.96094 9.67969C 7.82552 9.00781 7.7474 8.55729 7.72656 8.32812C 7.69531 8.60938 7.61719 9.0625 7.49219 9.6875C 7.36719 10.3073 7.27083 10.75 7.20312 11.0156L 5.66406 17L 2.91406 17L 0 5.57812L 2.38281 5.57812L 3.84375 11.8125C 4.09896 12.9635 4.28385 13.9609 4.39844 14.8047C 4.42969 14.5078 4.5 14.0495 4.60938 13.4297C 4.72396 12.8047 4.83073 12.3203 4.92969 11.9766L 6.59375 5.57812L 8.88281 5.57812L 10.5469 11.9766C 10.6198 12.263 10.7109 12.7005 10.8203 13.2891C 10.9297 13.8776 11.013 14.3828 11.0703 14.8047C 11.1224 14.3984 11.2057 13.8932 11.3203 13.2891C 11.4349 12.6797 11.5391 12.1875 11.6328 11.8125L 13.0859 5.57812L 15.4688 5.57812L 12.5625 17ZM 24.8244 17L 18.2463 17L 18.2463 5.57812L 24.8244 5.57812L 24.8244 7.5625L 20.6681 7.5625L 20.6681 10.0703L 24.5353 10.0703L 24.5353 12.0547L 20.6681 12.0547L 20.6681 15L 24.8244 15L 24.8244 17ZM 35.5472 17L 34.7191 14.2812L 30.555 14.2812L 29.7269 17L 27.1175 17L 31.1488 5.53125L 34.1097 5.53125L 38.1566 17L 35.5472 17ZM 34.1409 12.25C 33.3753 9.78646 32.943 8.39323 32.8441 8.07031C 32.7503 7.7474 32.6826 7.49219 32.6409 7.30469C 32.4691 7.97135 31.9769 9.61979 31.1644 12.25L 34.1409 12.25ZM 40.9419 17L 40.9419 5.57812L 43.3638 5.57812L 43.3638 15L 47.9966 15L 47.9966 17L 40.9419 17ZM 55.735 17L 53.3131 17L 53.3131 7.59375L 50.2116 7.59375L 50.2116 5.57812L 58.8366 5.57812L 58.8366 7.59375L 55.735 7.59375L 55.735 17ZM 71.2938 17L 68.8797 17L 68.8797 12.0703L 64.3563 12.0703L 64.3563 17L 61.9344 17L 61.9344 5.57812L 64.3563 5.57812L 64.3563 10.0547L 68.8797 10.0547L 68.8797 5.57812L 71.2938 5.57812L 71.2938 17ZM 75.5244 17L 75.5244 5.57812L 77.9463 5.57812L 77.9463 17L 75.5244 17ZM 87.0128 7.42969C 86.1014 7.42969 85.3956 7.77344 84.8956 8.46094C 84.3956 9.14323 84.1456 10.0964 84.1456 11.3203C 84.1456 13.8672 85.1014 15.1406 87.0128 15.1406C 87.8149 15.1406 88.7863 14.9401 89.9269 14.5391L 89.9269 16.5703C 88.9894 16.9609 87.9425 17.1562 86.7863 17.1562C 85.1248 17.1562 83.854 16.6536 82.9738 15.6484C 82.0935 14.638 81.6534 13.1901 81.6534 11.3047C 81.6534 10.1172 81.8696 9.07812 82.3019 8.1875C 82.7342 7.29167 83.354 6.60677 84.1613 6.13281C 84.9738 5.65365 85.9243 5.41406 87.0128 5.41406C 88.1222 5.41406 89.2368 5.68229 90.3566 6.21875L 89.5753 8.1875C 89.1482 7.98438 88.7185 7.80729 88.2863 7.65625C 87.854 7.50521 87.4295 7.42969 87.0128 7.42969ZM 100.697 17L 99.8684 14.2812L 95.7044 14.2812L 94.8763 17L 92.2669 17L 96.2981 5.53125L 99.2591 5.53125L 103.306 17L 100.697 17ZM 99.2903 12.25C 98.5247 9.78646 98.0924 8.39323 97.9934 8.07031C 97.8997 7.7474 97.832 7.49219 97.7903 7.30469C 97.6184 7.97135 97.1263 9.61979 96.3138 12.25L 99.2903 12.25Z"/>
<path id="path1_stroke" d="M 1.50748 15.7509L 1.03947 15.7967L 1.50748 15.7509ZM 27.5648 1.70096L 28.0329 1.74682L 27.5648 1.70096ZM 20.3996 8.79547L 20.0167 9.0684L 20.3775 9.57472L 20.7665 9.08964L 20.3996 8.79547ZM 14.3583 0.319207L 14.7412 0.0462736L 14.3583 0.319207ZM 7.29583 8.79547L 6.92895 9.08964L 7.3179 9.57472L 7.67877 9.0684L 7.29583 8.79547ZM 26.188 15.7509L 26.656 15.7967L 26.188 15.7509ZM -0.337431 1.74682L 1.03947 15.7967L 1.97548 15.705L 0.598585 1.65509L -0.337431 1.74682ZM 2.13149 16.787L 25.5639 16.787L 25.5639 15.8465L 2.13149 15.8465L 2.13149 16.787ZM 26.656 15.7967L 28.0329 1.74682L 27.0968 1.65509L 25.7199 15.705L 26.656 15.7967ZM 26.0848 0.953406L 20.0327 8.5013L 20.7665 9.08964L 26.8185 1.54175L 26.0848 0.953406ZM 20.7825 8.52253L 14.7412 0.0462736L 13.9754 0.59214L 20.0167 9.0684L 20.7825 8.52253ZM 12.9542 0.0462735L 6.91289 8.52253L 7.67877 9.0684L 13.7201 0.59214L 12.9542 0.0462735ZM 7.66271 8.5013L 1.61063 0.953406L 0.876879 1.54175L 6.92895 9.08964L 7.66271 8.5013ZM 0.598585 1.65509C 0.58338 1.49995 0.779362 1.42013 0.876879 1.54175L 1.61063 0.953406C 0.928009 0.102065 -0.443862 0.660807 -0.337431 1.74682L 0.598585 1.65509ZM 1.03947 15.7967C 1.09453 16.3586 1.56694 16.787 2.13149 16.787L 2.13149 15.8465C 2.05084 15.8465 1.98335 15.7853 1.97548 15.705L 1.03947 15.7967ZM 25.5639 16.787C 26.1285 16.787 26.6009 16.3586 26.656 15.7967L 25.7199 15.705C 25.7121 15.7853 25.6446 15.8465 25.5639 15.8465L 25.5639 16.787ZM 28.0329 1.74682C 28.1393 0.660807 26.7674 0.102065 26.0848 0.953406L 26.8185 1.54175C 26.9161 1.42013 27.112 1.49995 27.0968 1.65509L 28.0329 1.74682ZM 14.7412 0.0462736C 14.3037 -0.567601 13.3917 -0.567601 12.9542 0.0462735L 13.7201 0.59214C 13.7826 0.504443 13.9129 0.504443 13.9754 0.59214L 14.7412 0.0462736Z"/>
</defs>
</svg>
