<svg width="10" height="6" viewBox="0 0 10 6" version="1.1" xmlns="http://www.w3.org/2000/svg" xmlns:xlink="http://www.w3.org/1999/xlink">
<title>Path 5</title>
<desc>Created using Figma</desc>
<g id="Canvas" transform="translate(-2043 1185)">
<g id="Path 5">
<use xlink:href="#path0_stroke" transform="translate(2044 -1184)" fill="#FFFFFF"/>
</g>
</g>
<defs>
<path id="path0_stroke" d="M 0.53033 -0.53033C 0.237437 -0.823223 -0.237437 -0.823223 -0.53033 -0.53033C -0.823223 -0.237437 -0.823223 0.237437 -0.53033 0.53033L 0.53033 -0.53033ZM 8.53033 0.53033C 8.82322 0.237437 8.82322 -0.237437 8.53033 -0.53033C 8.23744 -0.823223 7.76256 -0.823223 7.46967 -0.53033L 8.53033 0.53033ZM -0.53033 0.53033L 2.76256 3.82322L 3.82322 2.76256L 0.53033 -0.53033L -0.53033 0.53033ZM 5.23744 3.82322L 8.53033 0.53033L 7.46967 -0.53033L 4.17678 2.76256L 5.23744 3.82322ZM 2.76256 3.82322C 3.44598 4.50664 4.55402 4.50664 5.23744 3.82322L 4.17678 2.76256C 4.07914 2.86019 3.92085 2.86019 3.82322 2.76256L 2.76256 3.82322Z"/>
</defs>
</svg>
